<mxfile host="app.diagrams.net" modified="2023-05-18T18:36:16.132Z" agent="Mozilla/5.0 (X11; Linux x86_64; rv:102.0) Gecko/20100101 Firefox/102.0" etag="_iVS5oEzvHqhiXSJMn4G" version="21.3.2" type="device">
  <diagram name="PÃ¡gina-1" id="xItYWxmaqW925EY6L7ZD">
    <mxGraphModel dx="988" dy="549" grid="1" gridSize="10" guides="1" tooltips="1" connect="1" arrows="1" fold="1" page="1" pageScale="1" pageWidth="1169" pageHeight="827" math="1" shadow="0">
      <root>
        <mxCell id="0" />
        <mxCell id="1" parent="0" />
        <mxCell id="MjW0_bDNU7ffV1WiJ_FF-19" value="" style="shape=table;startSize=0;container=1;collapsible=0;childLayout=tableLayout;fontSize=16;" parent="1" vertex="1">
          <mxGeometry x="340" y="220" width="200" height="200" as="geometry" />
        </mxCell>
        <mxCell id="MjW0_bDNU7ffV1WiJ_FF-20" value="" style="shape=tableRow;horizontal=0;startSize=0;swimlaneHead=0;swimlaneBody=0;strokeColor=inherit;top=0;left=0;bottom=0;right=0;collapsible=0;dropTarget=0;fillColor=none;points=[[0,0.5],[1,0.5]];portConstraint=eastwest;fontSize=16;" parent="MjW0_bDNU7ffV1WiJ_FF-19" vertex="1">
          <mxGeometry width="200" height="13" as="geometry" />
        </mxCell>
        <mxCell id="MjW0_bDNU7ffV1WiJ_FF-21" value="" style="shape=partialRectangle;html=1;whiteSpace=wrap;connectable=0;strokeColor=inherit;overflow=hidden;fillColor=none;top=0;left=0;bottom=0;right=0;pointerEvents=1;fontSize=16;" parent="MjW0_bDNU7ffV1WiJ_FF-20" vertex="1">
          <mxGeometry width="13" height="13" as="geometry">
            <mxRectangle width="13" height="13" as="alternateBounds" />
          </mxGeometry>
        </mxCell>
        <mxCell id="MjW0_bDNU7ffV1WiJ_FF-22" value="" style="shape=partialRectangle;html=1;whiteSpace=wrap;connectable=0;strokeColor=inherit;overflow=hidden;fillColor=none;top=0;left=0;bottom=0;right=0;pointerEvents=1;fontSize=16;" parent="MjW0_bDNU7ffV1WiJ_FF-20" vertex="1">
          <mxGeometry x="13" width="12" height="13" as="geometry">
            <mxRectangle width="12" height="13" as="alternateBounds" />
          </mxGeometry>
        </mxCell>
        <mxCell id="MjW0_bDNU7ffV1WiJ_FF-23" value="" style="shape=partialRectangle;html=1;whiteSpace=wrap;connectable=0;strokeColor=inherit;overflow=hidden;fillColor=none;top=0;left=0;bottom=0;right=0;pointerEvents=1;fontSize=16;" parent="MjW0_bDNU7ffV1WiJ_FF-20" vertex="1">
          <mxGeometry x="25" width="13" height="13" as="geometry">
            <mxRectangle width="13" height="13" as="alternateBounds" />
          </mxGeometry>
        </mxCell>
        <mxCell id="MjW0_bDNU7ffV1WiJ_FF-84" style="shape=partialRectangle;html=1;whiteSpace=wrap;connectable=0;strokeColor=inherit;overflow=hidden;fillColor=none;top=0;left=0;bottom=0;right=0;pointerEvents=1;fontSize=16;" parent="MjW0_bDNU7ffV1WiJ_FF-20" vertex="1">
          <mxGeometry x="38" width="13" height="13" as="geometry">
            <mxRectangle width="13" height="13" as="alternateBounds" />
          </mxGeometry>
        </mxCell>
        <mxCell id="MjW0_bDNU7ffV1WiJ_FF-100" style="shape=partialRectangle;html=1;whiteSpace=wrap;connectable=0;strokeColor=inherit;overflow=hidden;fillColor=none;top=0;left=0;bottom=0;right=0;pointerEvents=1;fontSize=16;" parent="MjW0_bDNU7ffV1WiJ_FF-20" vertex="1">
          <mxGeometry x="51" width="11" height="13" as="geometry">
            <mxRectangle width="11" height="13" as="alternateBounds" />
          </mxGeometry>
        </mxCell>
        <mxCell id="MjW0_bDNU7ffV1WiJ_FF-116" style="shape=partialRectangle;html=1;whiteSpace=wrap;connectable=0;strokeColor=inherit;overflow=hidden;fillColor=none;top=0;left=0;bottom=0;right=0;pointerEvents=1;fontSize=16;" parent="MjW0_bDNU7ffV1WiJ_FF-20" vertex="1">
          <mxGeometry x="62" width="13" height="13" as="geometry">
            <mxRectangle width="13" height="13" as="alternateBounds" />
          </mxGeometry>
        </mxCell>
        <mxCell id="MjW0_bDNU7ffV1WiJ_FF-132" style="shape=partialRectangle;html=1;whiteSpace=wrap;connectable=0;strokeColor=inherit;overflow=hidden;fillColor=none;top=0;left=0;bottom=0;right=0;pointerEvents=1;fontSize=16;" parent="MjW0_bDNU7ffV1WiJ_FF-20" vertex="1">
          <mxGeometry x="75" width="12" height="13" as="geometry">
            <mxRectangle width="12" height="13" as="alternateBounds" />
          </mxGeometry>
        </mxCell>
        <mxCell id="MjW0_bDNU7ffV1WiJ_FF-148" style="shape=partialRectangle;html=1;whiteSpace=wrap;connectable=0;strokeColor=inherit;overflow=hidden;fillColor=none;top=0;left=0;bottom=0;right=0;pointerEvents=1;fontSize=16;" parent="MjW0_bDNU7ffV1WiJ_FF-20" vertex="1">
          <mxGeometry x="87" width="13" height="13" as="geometry">
            <mxRectangle width="13" height="13" as="alternateBounds" />
          </mxGeometry>
        </mxCell>
        <mxCell id="MjW0_bDNU7ffV1WiJ_FF-164" style="shape=partialRectangle;html=1;whiteSpace=wrap;connectable=0;strokeColor=inherit;overflow=hidden;fillColor=none;top=0;left=0;bottom=0;right=0;pointerEvents=1;fontSize=16;" parent="MjW0_bDNU7ffV1WiJ_FF-20" vertex="1">
          <mxGeometry x="100" width="13" height="13" as="geometry">
            <mxRectangle width="13" height="13" as="alternateBounds" />
          </mxGeometry>
        </mxCell>
        <mxCell id="MjW0_bDNU7ffV1WiJ_FF-180" style="shape=partialRectangle;html=1;whiteSpace=wrap;connectable=0;strokeColor=inherit;overflow=hidden;fillColor=none;top=0;left=0;bottom=0;right=0;pointerEvents=1;fontSize=16;" parent="MjW0_bDNU7ffV1WiJ_FF-20" vertex="1">
          <mxGeometry x="113" width="12" height="13" as="geometry">
            <mxRectangle width="12" height="13" as="alternateBounds" />
          </mxGeometry>
        </mxCell>
        <mxCell id="MjW0_bDNU7ffV1WiJ_FF-196" style="shape=partialRectangle;html=1;whiteSpace=wrap;connectable=0;strokeColor=inherit;overflow=hidden;fillColor=none;top=0;left=0;bottom=0;right=0;pointerEvents=1;fontSize=16;" parent="MjW0_bDNU7ffV1WiJ_FF-20" vertex="1">
          <mxGeometry x="125" width="13" height="13" as="geometry">
            <mxRectangle width="13" height="13" as="alternateBounds" />
          </mxGeometry>
        </mxCell>
        <mxCell id="MjW0_bDNU7ffV1WiJ_FF-212" style="shape=partialRectangle;html=1;whiteSpace=wrap;connectable=0;strokeColor=inherit;overflow=hidden;fillColor=none;top=0;left=0;bottom=0;right=0;pointerEvents=1;fontSize=16;" parent="MjW0_bDNU7ffV1WiJ_FF-20" vertex="1">
          <mxGeometry x="138" width="13" height="13" as="geometry">
            <mxRectangle width="13" height="13" as="alternateBounds" />
          </mxGeometry>
        </mxCell>
        <mxCell id="MjW0_bDNU7ffV1WiJ_FF-228" style="shape=partialRectangle;html=1;whiteSpace=wrap;connectable=0;strokeColor=inherit;overflow=hidden;fillColor=none;top=0;left=0;bottom=0;right=0;pointerEvents=1;fontSize=16;" parent="MjW0_bDNU7ffV1WiJ_FF-20" vertex="1">
          <mxGeometry x="151" width="11" height="13" as="geometry">
            <mxRectangle width="11" height="13" as="alternateBounds" />
          </mxGeometry>
        </mxCell>
        <mxCell id="MjW0_bDNU7ffV1WiJ_FF-244" style="shape=partialRectangle;html=1;whiteSpace=wrap;connectable=0;strokeColor=inherit;overflow=hidden;fillColor=none;top=0;left=0;bottom=0;right=0;pointerEvents=1;fontSize=16;" parent="MjW0_bDNU7ffV1WiJ_FF-20" vertex="1">
          <mxGeometry x="162" width="13" height="13" as="geometry">
            <mxRectangle width="13" height="13" as="alternateBounds" />
          </mxGeometry>
        </mxCell>
        <mxCell id="MjW0_bDNU7ffV1WiJ_FF-260" style="shape=partialRectangle;html=1;whiteSpace=wrap;connectable=0;strokeColor=inherit;overflow=hidden;fillColor=none;top=0;left=0;bottom=0;right=0;pointerEvents=1;fontSize=16;" parent="MjW0_bDNU7ffV1WiJ_FF-20" vertex="1">
          <mxGeometry x="175" width="12" height="13" as="geometry">
            <mxRectangle width="12" height="13" as="alternateBounds" />
          </mxGeometry>
        </mxCell>
        <mxCell id="MjW0_bDNU7ffV1WiJ_FF-276" style="shape=partialRectangle;html=1;whiteSpace=wrap;connectable=0;strokeColor=inherit;overflow=hidden;fillColor=none;top=0;left=0;bottom=0;right=0;pointerEvents=1;fontSize=16;" parent="MjW0_bDNU7ffV1WiJ_FF-20" vertex="1">
          <mxGeometry x="187" width="13" height="13" as="geometry">
            <mxRectangle width="13" height="13" as="alternateBounds" />
          </mxGeometry>
        </mxCell>
        <mxCell id="MjW0_bDNU7ffV1WiJ_FF-24" value="" style="shape=tableRow;horizontal=0;startSize=0;swimlaneHead=0;swimlaneBody=0;strokeColor=inherit;top=0;left=0;bottom=0;right=0;collapsible=0;dropTarget=0;fillColor=none;points=[[0,0.5],[1,0.5]];portConstraint=eastwest;fontSize=16;" parent="MjW0_bDNU7ffV1WiJ_FF-19" vertex="1">
          <mxGeometry y="13" width="200" height="13" as="geometry" />
        </mxCell>
        <mxCell id="MjW0_bDNU7ffV1WiJ_FF-25" value="" style="shape=partialRectangle;html=1;whiteSpace=wrap;connectable=0;strokeColor=inherit;overflow=hidden;fillColor=none;top=0;left=0;bottom=0;right=0;pointerEvents=1;fontSize=16;" parent="MjW0_bDNU7ffV1WiJ_FF-24" vertex="1">
          <mxGeometry width="13" height="13" as="geometry">
            <mxRectangle width="13" height="13" as="alternateBounds" />
          </mxGeometry>
        </mxCell>
        <mxCell id="MjW0_bDNU7ffV1WiJ_FF-26" value="" style="shape=partialRectangle;html=1;whiteSpace=wrap;connectable=0;strokeColor=inherit;overflow=hidden;fillColor=none;top=0;left=0;bottom=0;right=0;pointerEvents=1;fontSize=16;" parent="MjW0_bDNU7ffV1WiJ_FF-24" vertex="1">
          <mxGeometry x="13" width="12" height="13" as="geometry">
            <mxRectangle width="12" height="13" as="alternateBounds" />
          </mxGeometry>
        </mxCell>
        <mxCell id="MjW0_bDNU7ffV1WiJ_FF-27" value="" style="shape=partialRectangle;html=1;whiteSpace=wrap;connectable=0;strokeColor=inherit;overflow=hidden;fillColor=none;top=0;left=0;bottom=0;right=0;pointerEvents=1;fontSize=16;" parent="MjW0_bDNU7ffV1WiJ_FF-24" vertex="1">
          <mxGeometry x="25" width="13" height="13" as="geometry">
            <mxRectangle width="13" height="13" as="alternateBounds" />
          </mxGeometry>
        </mxCell>
        <mxCell id="MjW0_bDNU7ffV1WiJ_FF-85" style="shape=partialRectangle;html=1;whiteSpace=wrap;connectable=0;strokeColor=inherit;overflow=hidden;fillColor=none;top=0;left=0;bottom=0;right=0;pointerEvents=1;fontSize=16;" parent="MjW0_bDNU7ffV1WiJ_FF-24" vertex="1">
          <mxGeometry x="38" width="13" height="13" as="geometry">
            <mxRectangle width="13" height="13" as="alternateBounds" />
          </mxGeometry>
        </mxCell>
        <mxCell id="MjW0_bDNU7ffV1WiJ_FF-101" style="shape=partialRectangle;html=1;whiteSpace=wrap;connectable=0;strokeColor=inherit;overflow=hidden;fillColor=none;top=0;left=0;bottom=0;right=0;pointerEvents=1;fontSize=16;" parent="MjW0_bDNU7ffV1WiJ_FF-24" vertex="1">
          <mxGeometry x="51" width="11" height="13" as="geometry">
            <mxRectangle width="11" height="13" as="alternateBounds" />
          </mxGeometry>
        </mxCell>
        <mxCell id="MjW0_bDNU7ffV1WiJ_FF-117" style="shape=partialRectangle;html=1;whiteSpace=wrap;connectable=0;strokeColor=inherit;overflow=hidden;fillColor=none;top=0;left=0;bottom=0;right=0;pointerEvents=1;fontSize=16;" parent="MjW0_bDNU7ffV1WiJ_FF-24" vertex="1">
          <mxGeometry x="62" width="13" height="13" as="geometry">
            <mxRectangle width="13" height="13" as="alternateBounds" />
          </mxGeometry>
        </mxCell>
        <mxCell id="MjW0_bDNU7ffV1WiJ_FF-133" style="shape=partialRectangle;html=1;whiteSpace=wrap;connectable=0;strokeColor=inherit;overflow=hidden;fillColor=none;top=0;left=0;bottom=0;right=0;pointerEvents=1;fontSize=16;" parent="MjW0_bDNU7ffV1WiJ_FF-24" vertex="1">
          <mxGeometry x="75" width="12" height="13" as="geometry">
            <mxRectangle width="12" height="13" as="alternateBounds" />
          </mxGeometry>
        </mxCell>
        <mxCell id="MjW0_bDNU7ffV1WiJ_FF-149" style="shape=partialRectangle;html=1;whiteSpace=wrap;connectable=0;strokeColor=inherit;overflow=hidden;fillColor=none;top=0;left=0;bottom=0;right=0;pointerEvents=1;fontSize=16;" parent="MjW0_bDNU7ffV1WiJ_FF-24" vertex="1">
          <mxGeometry x="87" width="13" height="13" as="geometry">
            <mxRectangle width="13" height="13" as="alternateBounds" />
          </mxGeometry>
        </mxCell>
        <mxCell id="MjW0_bDNU7ffV1WiJ_FF-165" style="shape=partialRectangle;html=1;whiteSpace=wrap;connectable=0;strokeColor=inherit;overflow=hidden;fillColor=none;top=0;left=0;bottom=0;right=0;pointerEvents=1;fontSize=16;" parent="MjW0_bDNU7ffV1WiJ_FF-24" vertex="1">
          <mxGeometry x="100" width="13" height="13" as="geometry">
            <mxRectangle width="13" height="13" as="alternateBounds" />
          </mxGeometry>
        </mxCell>
        <mxCell id="MjW0_bDNU7ffV1WiJ_FF-181" style="shape=partialRectangle;html=1;whiteSpace=wrap;connectable=0;strokeColor=inherit;overflow=hidden;fillColor=none;top=0;left=0;bottom=0;right=0;pointerEvents=1;fontSize=16;" parent="MjW0_bDNU7ffV1WiJ_FF-24" vertex="1">
          <mxGeometry x="113" width="12" height="13" as="geometry">
            <mxRectangle width="12" height="13" as="alternateBounds" />
          </mxGeometry>
        </mxCell>
        <mxCell id="MjW0_bDNU7ffV1WiJ_FF-197" style="shape=partialRectangle;html=1;whiteSpace=wrap;connectable=0;strokeColor=inherit;overflow=hidden;fillColor=none;top=0;left=0;bottom=0;right=0;pointerEvents=1;fontSize=16;" parent="MjW0_bDNU7ffV1WiJ_FF-24" vertex="1">
          <mxGeometry x="125" width="13" height="13" as="geometry">
            <mxRectangle width="13" height="13" as="alternateBounds" />
          </mxGeometry>
        </mxCell>
        <mxCell id="MjW0_bDNU7ffV1WiJ_FF-213" style="shape=partialRectangle;html=1;whiteSpace=wrap;connectable=0;strokeColor=inherit;overflow=hidden;fillColor=none;top=0;left=0;bottom=0;right=0;pointerEvents=1;fontSize=16;" parent="MjW0_bDNU7ffV1WiJ_FF-24" vertex="1">
          <mxGeometry x="138" width="13" height="13" as="geometry">
            <mxRectangle width="13" height="13" as="alternateBounds" />
          </mxGeometry>
        </mxCell>
        <mxCell id="MjW0_bDNU7ffV1WiJ_FF-229" style="shape=partialRectangle;html=1;whiteSpace=wrap;connectable=0;strokeColor=inherit;overflow=hidden;fillColor=none;top=0;left=0;bottom=0;right=0;pointerEvents=1;fontSize=16;" parent="MjW0_bDNU7ffV1WiJ_FF-24" vertex="1">
          <mxGeometry x="151" width="11" height="13" as="geometry">
            <mxRectangle width="11" height="13" as="alternateBounds" />
          </mxGeometry>
        </mxCell>
        <mxCell id="MjW0_bDNU7ffV1WiJ_FF-245" style="shape=partialRectangle;html=1;whiteSpace=wrap;connectable=0;strokeColor=inherit;overflow=hidden;fillColor=none;top=0;left=0;bottom=0;right=0;pointerEvents=1;fontSize=16;" parent="MjW0_bDNU7ffV1WiJ_FF-24" vertex="1">
          <mxGeometry x="162" width="13" height="13" as="geometry">
            <mxRectangle width="13" height="13" as="alternateBounds" />
          </mxGeometry>
        </mxCell>
        <mxCell id="MjW0_bDNU7ffV1WiJ_FF-261" style="shape=partialRectangle;html=1;whiteSpace=wrap;connectable=0;strokeColor=inherit;overflow=hidden;fillColor=none;top=0;left=0;bottom=0;right=0;pointerEvents=1;fontSize=16;" parent="MjW0_bDNU7ffV1WiJ_FF-24" vertex="1">
          <mxGeometry x="175" width="12" height="13" as="geometry">
            <mxRectangle width="12" height="13" as="alternateBounds" />
          </mxGeometry>
        </mxCell>
        <mxCell id="MjW0_bDNU7ffV1WiJ_FF-277" style="shape=partialRectangle;html=1;whiteSpace=wrap;connectable=0;strokeColor=inherit;overflow=hidden;fillColor=none;top=0;left=0;bottom=0;right=0;pointerEvents=1;fontSize=16;" parent="MjW0_bDNU7ffV1WiJ_FF-24" vertex="1">
          <mxGeometry x="187" width="13" height="13" as="geometry">
            <mxRectangle width="13" height="13" as="alternateBounds" />
          </mxGeometry>
        </mxCell>
        <mxCell id="MjW0_bDNU7ffV1WiJ_FF-28" value="" style="shape=tableRow;horizontal=0;startSize=0;swimlaneHead=0;swimlaneBody=0;strokeColor=inherit;top=0;left=0;bottom=0;right=0;collapsible=0;dropTarget=0;fillColor=none;points=[[0,0.5],[1,0.5]];portConstraint=eastwest;fontSize=16;" parent="MjW0_bDNU7ffV1WiJ_FF-19" vertex="1">
          <mxGeometry y="26" width="200" height="12" as="geometry" />
        </mxCell>
        <mxCell id="MjW0_bDNU7ffV1WiJ_FF-29" value="" style="shape=partialRectangle;html=1;whiteSpace=wrap;connectable=0;strokeColor=inherit;overflow=hidden;fillColor=none;top=0;left=0;bottom=0;right=0;pointerEvents=1;fontSize=16;" parent="MjW0_bDNU7ffV1WiJ_FF-28" vertex="1">
          <mxGeometry width="13" height="12" as="geometry">
            <mxRectangle width="13" height="12" as="alternateBounds" />
          </mxGeometry>
        </mxCell>
        <mxCell id="MjW0_bDNU7ffV1WiJ_FF-30" value="" style="shape=partialRectangle;html=1;whiteSpace=wrap;connectable=0;strokeColor=inherit;overflow=hidden;fillColor=none;top=0;left=0;bottom=0;right=0;pointerEvents=1;fontSize=16;" parent="MjW0_bDNU7ffV1WiJ_FF-28" vertex="1">
          <mxGeometry x="13" width="12" height="12" as="geometry">
            <mxRectangle width="12" height="12" as="alternateBounds" />
          </mxGeometry>
        </mxCell>
        <mxCell id="MjW0_bDNU7ffV1WiJ_FF-31" value="" style="shape=partialRectangle;html=1;whiteSpace=wrap;connectable=0;strokeColor=inherit;overflow=hidden;fillColor=none;top=0;left=0;bottom=0;right=0;pointerEvents=1;fontSize=16;" parent="MjW0_bDNU7ffV1WiJ_FF-28" vertex="1">
          <mxGeometry x="25" width="13" height="12" as="geometry">
            <mxRectangle width="13" height="12" as="alternateBounds" />
          </mxGeometry>
        </mxCell>
        <mxCell id="MjW0_bDNU7ffV1WiJ_FF-86" style="shape=partialRectangle;html=1;whiteSpace=wrap;connectable=0;strokeColor=inherit;overflow=hidden;fillColor=none;top=0;left=0;bottom=0;right=0;pointerEvents=1;fontSize=16;" parent="MjW0_bDNU7ffV1WiJ_FF-28" vertex="1">
          <mxGeometry x="38" width="13" height="12" as="geometry">
            <mxRectangle width="13" height="12" as="alternateBounds" />
          </mxGeometry>
        </mxCell>
        <mxCell id="MjW0_bDNU7ffV1WiJ_FF-102" style="shape=partialRectangle;html=1;whiteSpace=wrap;connectable=0;strokeColor=inherit;overflow=hidden;fillColor=none;top=0;left=0;bottom=0;right=0;pointerEvents=1;fontSize=16;" parent="MjW0_bDNU7ffV1WiJ_FF-28" vertex="1">
          <mxGeometry x="51" width="11" height="12" as="geometry">
            <mxRectangle width="11" height="12" as="alternateBounds" />
          </mxGeometry>
        </mxCell>
        <mxCell id="MjW0_bDNU7ffV1WiJ_FF-118" style="shape=partialRectangle;html=1;whiteSpace=wrap;connectable=0;strokeColor=inherit;overflow=hidden;fillColor=none;top=0;left=0;bottom=0;right=0;pointerEvents=1;fontSize=16;" parent="MjW0_bDNU7ffV1WiJ_FF-28" vertex="1">
          <mxGeometry x="62" width="13" height="12" as="geometry">
            <mxRectangle width="13" height="12" as="alternateBounds" />
          </mxGeometry>
        </mxCell>
        <mxCell id="MjW0_bDNU7ffV1WiJ_FF-134" style="shape=partialRectangle;html=1;whiteSpace=wrap;connectable=0;strokeColor=inherit;overflow=hidden;fillColor=none;top=0;left=0;bottom=0;right=0;pointerEvents=1;fontSize=16;" parent="MjW0_bDNU7ffV1WiJ_FF-28" vertex="1">
          <mxGeometry x="75" width="12" height="12" as="geometry">
            <mxRectangle width="12" height="12" as="alternateBounds" />
          </mxGeometry>
        </mxCell>
        <mxCell id="MjW0_bDNU7ffV1WiJ_FF-150" style="shape=partialRectangle;html=1;whiteSpace=wrap;connectable=0;strokeColor=inherit;overflow=hidden;fillColor=none;top=0;left=0;bottom=0;right=0;pointerEvents=1;fontSize=16;" parent="MjW0_bDNU7ffV1WiJ_FF-28" vertex="1">
          <mxGeometry x="87" width="13" height="12" as="geometry">
            <mxRectangle width="13" height="12" as="alternateBounds" />
          </mxGeometry>
        </mxCell>
        <mxCell id="MjW0_bDNU7ffV1WiJ_FF-166" style="shape=partialRectangle;html=1;whiteSpace=wrap;connectable=0;strokeColor=#f18e00;overflow=hidden;fillColor=#F1B880;top=0;left=0;bottom=0;right=0;pointerEvents=1;fontSize=16;" parent="MjW0_bDNU7ffV1WiJ_FF-28" vertex="1">
          <mxGeometry x="100" width="13" height="12" as="geometry">
            <mxRectangle width="13" height="12" as="alternateBounds" />
          </mxGeometry>
        </mxCell>
        <mxCell id="MjW0_bDNU7ffV1WiJ_FF-182" style="shape=partialRectangle;html=1;whiteSpace=wrap;connectable=0;strokeColor=#f18e00;overflow=hidden;fillColor=#F1B880;top=0;left=0;bottom=0;right=0;pointerEvents=1;fontSize=16;" parent="MjW0_bDNU7ffV1WiJ_FF-28" vertex="1">
          <mxGeometry x="113" width="12" height="12" as="geometry">
            <mxRectangle width="12" height="12" as="alternateBounds" />
          </mxGeometry>
        </mxCell>
        <mxCell id="MjW0_bDNU7ffV1WiJ_FF-198" style="shape=partialRectangle;html=1;whiteSpace=wrap;connectable=0;strokeColor=#f18e00;overflow=hidden;fillColor=#F1B880;top=0;left=0;bottom=0;right=0;pointerEvents=1;fontSize=16;" parent="MjW0_bDNU7ffV1WiJ_FF-28" vertex="1">
          <mxGeometry x="125" width="13" height="12" as="geometry">
            <mxRectangle width="13" height="12" as="alternateBounds" />
          </mxGeometry>
        </mxCell>
        <mxCell id="MjW0_bDNU7ffV1WiJ_FF-214" style="shape=partialRectangle;html=1;whiteSpace=wrap;connectable=0;strokeColor=inherit;overflow=hidden;fillColor=none;top=0;left=0;bottom=0;right=0;pointerEvents=1;fontSize=16;" parent="MjW0_bDNU7ffV1WiJ_FF-28" vertex="1">
          <mxGeometry x="138" width="13" height="12" as="geometry">
            <mxRectangle width="13" height="12" as="alternateBounds" />
          </mxGeometry>
        </mxCell>
        <mxCell id="MjW0_bDNU7ffV1WiJ_FF-230" style="shape=partialRectangle;html=1;whiteSpace=wrap;connectable=0;strokeColor=inherit;overflow=hidden;fillColor=none;top=0;left=0;bottom=0;right=0;pointerEvents=1;fontSize=16;" parent="MjW0_bDNU7ffV1WiJ_FF-28" vertex="1">
          <mxGeometry x="151" width="11" height="12" as="geometry">
            <mxRectangle width="11" height="12" as="alternateBounds" />
          </mxGeometry>
        </mxCell>
        <mxCell id="MjW0_bDNU7ffV1WiJ_FF-246" style="shape=partialRectangle;html=1;whiteSpace=wrap;connectable=0;strokeColor=inherit;overflow=hidden;fillColor=none;top=0;left=0;bottom=0;right=0;pointerEvents=1;fontSize=16;" parent="MjW0_bDNU7ffV1WiJ_FF-28" vertex="1">
          <mxGeometry x="162" width="13" height="12" as="geometry">
            <mxRectangle width="13" height="12" as="alternateBounds" />
          </mxGeometry>
        </mxCell>
        <mxCell id="MjW0_bDNU7ffV1WiJ_FF-262" style="shape=partialRectangle;html=1;whiteSpace=wrap;connectable=0;strokeColor=inherit;overflow=hidden;fillColor=none;top=0;left=0;bottom=0;right=0;pointerEvents=1;fontSize=16;" parent="MjW0_bDNU7ffV1WiJ_FF-28" vertex="1">
          <mxGeometry x="175" width="12" height="12" as="geometry">
            <mxRectangle width="12" height="12" as="alternateBounds" />
          </mxGeometry>
        </mxCell>
        <mxCell id="MjW0_bDNU7ffV1WiJ_FF-278" style="shape=partialRectangle;html=1;whiteSpace=wrap;connectable=0;strokeColor=inherit;overflow=hidden;fillColor=none;top=0;left=0;bottom=0;right=0;pointerEvents=1;fontSize=16;" parent="MjW0_bDNU7ffV1WiJ_FF-28" vertex="1">
          <mxGeometry x="187" width="13" height="12" as="geometry">
            <mxRectangle width="13" height="12" as="alternateBounds" />
          </mxGeometry>
        </mxCell>
        <mxCell id="MjW0_bDNU7ffV1WiJ_FF-32" style="shape=tableRow;horizontal=0;startSize=0;swimlaneHead=0;swimlaneBody=0;strokeColor=inherit;top=0;left=0;bottom=0;right=0;collapsible=0;dropTarget=0;fillColor=none;points=[[0,0.5],[1,0.5]];portConstraint=eastwest;fontSize=16;" parent="MjW0_bDNU7ffV1WiJ_FF-19" vertex="1">
          <mxGeometry y="38" width="200" height="12" as="geometry" />
        </mxCell>
        <mxCell id="MjW0_bDNU7ffV1WiJ_FF-33" style="shape=partialRectangle;html=1;whiteSpace=wrap;connectable=0;strokeColor=inherit;overflow=hidden;fillColor=none;top=0;left=0;bottom=0;right=0;pointerEvents=1;fontSize=16;" parent="MjW0_bDNU7ffV1WiJ_FF-32" vertex="1">
          <mxGeometry width="13" height="12" as="geometry">
            <mxRectangle width="13" height="12" as="alternateBounds" />
          </mxGeometry>
        </mxCell>
        <mxCell id="MjW0_bDNU7ffV1WiJ_FF-34" style="shape=partialRectangle;html=1;whiteSpace=wrap;connectable=0;strokeColor=inherit;overflow=hidden;fillColor=none;top=0;left=0;bottom=0;right=0;pointerEvents=1;fontSize=16;" parent="MjW0_bDNU7ffV1WiJ_FF-32" vertex="1">
          <mxGeometry x="13" width="12" height="12" as="geometry">
            <mxRectangle width="12" height="12" as="alternateBounds" />
          </mxGeometry>
        </mxCell>
        <mxCell id="MjW0_bDNU7ffV1WiJ_FF-35" style="shape=partialRectangle;html=1;whiteSpace=wrap;connectable=0;strokeColor=inherit;overflow=hidden;fillColor=none;top=0;left=0;bottom=0;right=0;pointerEvents=1;fontSize=16;" parent="MjW0_bDNU7ffV1WiJ_FF-32" vertex="1">
          <mxGeometry x="25" width="13" height="12" as="geometry">
            <mxRectangle width="13" height="12" as="alternateBounds" />
          </mxGeometry>
        </mxCell>
        <mxCell id="MjW0_bDNU7ffV1WiJ_FF-87" style="shape=partialRectangle;html=1;whiteSpace=wrap;connectable=0;strokeColor=inherit;overflow=hidden;fillColor=none;top=0;left=0;bottom=0;right=0;pointerEvents=1;fontSize=16;" parent="MjW0_bDNU7ffV1WiJ_FF-32" vertex="1">
          <mxGeometry x="38" width="13" height="12" as="geometry">
            <mxRectangle width="13" height="12" as="alternateBounds" />
          </mxGeometry>
        </mxCell>
        <mxCell id="MjW0_bDNU7ffV1WiJ_FF-103" style="shape=partialRectangle;html=1;whiteSpace=wrap;connectable=0;strokeColor=inherit;overflow=hidden;fillColor=none;top=0;left=0;bottom=0;right=0;pointerEvents=1;fontSize=16;" parent="MjW0_bDNU7ffV1WiJ_FF-32" vertex="1">
          <mxGeometry x="51" width="11" height="12" as="geometry">
            <mxRectangle width="11" height="12" as="alternateBounds" />
          </mxGeometry>
        </mxCell>
        <mxCell id="MjW0_bDNU7ffV1WiJ_FF-119" style="shape=partialRectangle;html=1;whiteSpace=wrap;connectable=0;strokeColor=inherit;overflow=hidden;fillColor=none;top=0;left=0;bottom=0;right=0;pointerEvents=1;fontSize=16;" parent="MjW0_bDNU7ffV1WiJ_FF-32" vertex="1">
          <mxGeometry x="62" width="13" height="12" as="geometry">
            <mxRectangle width="13" height="12" as="alternateBounds" />
          </mxGeometry>
        </mxCell>
        <mxCell id="MjW0_bDNU7ffV1WiJ_FF-135" style="shape=partialRectangle;html=1;whiteSpace=wrap;connectable=0;strokeColor=inherit;overflow=hidden;fillColor=none;top=0;left=0;bottom=0;right=0;pointerEvents=1;fontSize=16;" parent="MjW0_bDNU7ffV1WiJ_FF-32" vertex="1">
          <mxGeometry x="75" width="12" height="12" as="geometry">
            <mxRectangle width="12" height="12" as="alternateBounds" />
          </mxGeometry>
        </mxCell>
        <mxCell id="MjW0_bDNU7ffV1WiJ_FF-151" style="shape=partialRectangle;html=1;whiteSpace=wrap;connectable=0;strokeColor=inherit;overflow=hidden;fillColor=none;top=0;left=0;bottom=0;right=0;pointerEvents=1;fontSize=16;" parent="MjW0_bDNU7ffV1WiJ_FF-32" vertex="1">
          <mxGeometry x="87" width="13" height="12" as="geometry">
            <mxRectangle width="13" height="12" as="alternateBounds" />
          </mxGeometry>
        </mxCell>
        <mxCell id="MjW0_bDNU7ffV1WiJ_FF-167" style="shape=partialRectangle;html=1;whiteSpace=wrap;connectable=0;strokeColor=#f18e00;overflow=hidden;fillColor=#F1B880;top=0;left=0;bottom=0;right=0;pointerEvents=1;fontSize=16;" parent="MjW0_bDNU7ffV1WiJ_FF-32" vertex="1">
          <mxGeometry x="100" width="13" height="12" as="geometry">
            <mxRectangle width="13" height="12" as="alternateBounds" />
          </mxGeometry>
        </mxCell>
        <mxCell id="MjW0_bDNU7ffV1WiJ_FF-183" style="shape=partialRectangle;html=1;whiteSpace=wrap;connectable=0;strokeColor=#f18e00;overflow=hidden;fillColor=#F1B880;top=0;left=0;bottom=0;right=0;pointerEvents=1;fontSize=16;" parent="MjW0_bDNU7ffV1WiJ_FF-32" vertex="1">
          <mxGeometry x="113" width="12" height="12" as="geometry">
            <mxRectangle width="12" height="12" as="alternateBounds" />
          </mxGeometry>
        </mxCell>
        <mxCell id="MjW0_bDNU7ffV1WiJ_FF-199" style="shape=partialRectangle;html=1;whiteSpace=wrap;connectable=0;strokeColor=#f18e00;overflow=hidden;fillColor=#F1B880;top=0;left=0;bottom=0;right=0;pointerEvents=1;fontSize=16;" parent="MjW0_bDNU7ffV1WiJ_FF-32" vertex="1">
          <mxGeometry x="125" width="13" height="12" as="geometry">
            <mxRectangle width="13" height="12" as="alternateBounds" />
          </mxGeometry>
        </mxCell>
        <mxCell id="MjW0_bDNU7ffV1WiJ_FF-215" style="shape=partialRectangle;html=1;whiteSpace=wrap;connectable=0;strokeColor=#f18e00;overflow=hidden;fillColor=#F1B880;top=0;left=0;bottom=0;right=0;pointerEvents=1;fontSize=16;" parent="MjW0_bDNU7ffV1WiJ_FF-32" vertex="1">
          <mxGeometry x="138" width="13" height="12" as="geometry">
            <mxRectangle width="13" height="12" as="alternateBounds" />
          </mxGeometry>
        </mxCell>
        <mxCell id="MjW0_bDNU7ffV1WiJ_FF-231" style="shape=partialRectangle;html=1;whiteSpace=wrap;connectable=0;strokeColor=inherit;overflow=hidden;fillColor=none;top=0;left=0;bottom=0;right=0;pointerEvents=1;fontSize=16;" parent="MjW0_bDNU7ffV1WiJ_FF-32" vertex="1">
          <mxGeometry x="151" width="11" height="12" as="geometry">
            <mxRectangle width="11" height="12" as="alternateBounds" />
          </mxGeometry>
        </mxCell>
        <mxCell id="MjW0_bDNU7ffV1WiJ_FF-247" style="shape=partialRectangle;html=1;whiteSpace=wrap;connectable=0;strokeColor=inherit;overflow=hidden;fillColor=none;top=0;left=0;bottom=0;right=0;pointerEvents=1;fontSize=16;" parent="MjW0_bDNU7ffV1WiJ_FF-32" vertex="1">
          <mxGeometry x="162" width="13" height="12" as="geometry">
            <mxRectangle width="13" height="12" as="alternateBounds" />
          </mxGeometry>
        </mxCell>
        <mxCell id="MjW0_bDNU7ffV1WiJ_FF-263" style="shape=partialRectangle;html=1;whiteSpace=wrap;connectable=0;strokeColor=inherit;overflow=hidden;fillColor=none;top=0;left=0;bottom=0;right=0;pointerEvents=1;fontSize=16;" parent="MjW0_bDNU7ffV1WiJ_FF-32" vertex="1">
          <mxGeometry x="175" width="12" height="12" as="geometry">
            <mxRectangle width="12" height="12" as="alternateBounds" />
          </mxGeometry>
        </mxCell>
        <mxCell id="MjW0_bDNU7ffV1WiJ_FF-279" style="shape=partialRectangle;html=1;whiteSpace=wrap;connectable=0;strokeColor=inherit;overflow=hidden;fillColor=none;top=0;left=0;bottom=0;right=0;pointerEvents=1;fontSize=16;" parent="MjW0_bDNU7ffV1WiJ_FF-32" vertex="1">
          <mxGeometry x="187" width="13" height="12" as="geometry">
            <mxRectangle width="13" height="12" as="alternateBounds" />
          </mxGeometry>
        </mxCell>
        <mxCell id="MjW0_bDNU7ffV1WiJ_FF-36" style="shape=tableRow;horizontal=0;startSize=0;swimlaneHead=0;swimlaneBody=0;strokeColor=inherit;top=0;left=0;bottom=0;right=0;collapsible=0;dropTarget=0;fillColor=none;points=[[0,0.5],[1,0.5]];portConstraint=eastwest;fontSize=16;" parent="MjW0_bDNU7ffV1WiJ_FF-19" vertex="1">
          <mxGeometry y="50" width="200" height="13" as="geometry" />
        </mxCell>
        <mxCell id="MjW0_bDNU7ffV1WiJ_FF-37" style="shape=partialRectangle;html=1;whiteSpace=wrap;connectable=0;strokeColor=inherit;overflow=hidden;fillColor=none;top=0;left=0;bottom=0;right=0;pointerEvents=1;fontSize=16;" parent="MjW0_bDNU7ffV1WiJ_FF-36" vertex="1">
          <mxGeometry width="13" height="13" as="geometry">
            <mxRectangle width="13" height="13" as="alternateBounds" />
          </mxGeometry>
        </mxCell>
        <mxCell id="MjW0_bDNU7ffV1WiJ_FF-38" style="shape=partialRectangle;html=1;whiteSpace=wrap;connectable=0;strokeColor=inherit;overflow=hidden;fillColor=none;top=0;left=0;bottom=0;right=0;pointerEvents=1;fontSize=16;" parent="MjW0_bDNU7ffV1WiJ_FF-36" vertex="1">
          <mxGeometry x="13" width="12" height="13" as="geometry">
            <mxRectangle width="12" height="13" as="alternateBounds" />
          </mxGeometry>
        </mxCell>
        <mxCell id="MjW0_bDNU7ffV1WiJ_FF-39" style="shape=partialRectangle;html=1;whiteSpace=wrap;connectable=0;strokeColor=inherit;overflow=hidden;fillColor=none;top=0;left=0;bottom=0;right=0;pointerEvents=1;fontSize=16;" parent="MjW0_bDNU7ffV1WiJ_FF-36" vertex="1">
          <mxGeometry x="25" width="13" height="13" as="geometry">
            <mxRectangle width="13" height="13" as="alternateBounds" />
          </mxGeometry>
        </mxCell>
        <mxCell id="MjW0_bDNU7ffV1WiJ_FF-88" style="shape=partialRectangle;html=1;whiteSpace=wrap;connectable=0;strokeColor=inherit;overflow=hidden;fillColor=none;top=0;left=0;bottom=0;right=0;pointerEvents=1;fontSize=16;" parent="MjW0_bDNU7ffV1WiJ_FF-36" vertex="1">
          <mxGeometry x="38" width="13" height="13" as="geometry">
            <mxRectangle width="13" height="13" as="alternateBounds" />
          </mxGeometry>
        </mxCell>
        <mxCell id="MjW0_bDNU7ffV1WiJ_FF-104" style="shape=partialRectangle;html=1;whiteSpace=wrap;connectable=0;strokeColor=inherit;overflow=hidden;fillColor=none;top=0;left=0;bottom=0;right=0;pointerEvents=1;fontSize=16;" parent="MjW0_bDNU7ffV1WiJ_FF-36" vertex="1">
          <mxGeometry x="51" width="11" height="13" as="geometry">
            <mxRectangle width="11" height="13" as="alternateBounds" />
          </mxGeometry>
        </mxCell>
        <mxCell id="MjW0_bDNU7ffV1WiJ_FF-120" style="shape=partialRectangle;html=1;whiteSpace=wrap;connectable=0;strokeColor=inherit;overflow=hidden;fillColor=none;top=0;left=0;bottom=0;right=0;pointerEvents=1;fontSize=16;" parent="MjW0_bDNU7ffV1WiJ_FF-36" vertex="1">
          <mxGeometry x="62" width="13" height="13" as="geometry">
            <mxRectangle width="13" height="13" as="alternateBounds" />
          </mxGeometry>
        </mxCell>
        <mxCell id="MjW0_bDNU7ffV1WiJ_FF-136" style="shape=partialRectangle;html=1;whiteSpace=wrap;connectable=0;strokeColor=inherit;overflow=hidden;fillColor=none;top=0;left=0;bottom=0;right=0;pointerEvents=1;fontSize=16;" parent="MjW0_bDNU7ffV1WiJ_FF-36" vertex="1">
          <mxGeometry x="75" width="12" height="13" as="geometry">
            <mxRectangle width="12" height="13" as="alternateBounds" />
          </mxGeometry>
        </mxCell>
        <mxCell id="MjW0_bDNU7ffV1WiJ_FF-152" style="shape=partialRectangle;html=1;whiteSpace=wrap;connectable=0;strokeColor=inherit;overflow=hidden;fillColor=none;top=0;left=0;bottom=0;right=0;pointerEvents=1;fontSize=16;" parent="MjW0_bDNU7ffV1WiJ_FF-36" vertex="1">
          <mxGeometry x="87" width="13" height="13" as="geometry">
            <mxRectangle width="13" height="13" as="alternateBounds" />
          </mxGeometry>
        </mxCell>
        <mxCell id="MjW0_bDNU7ffV1WiJ_FF-168" style="shape=partialRectangle;html=1;whiteSpace=wrap;connectable=0;strokeColor=#f18e00;overflow=hidden;fillColor=#F1B880;top=0;left=0;bottom=0;right=0;pointerEvents=1;fontSize=16;" parent="MjW0_bDNU7ffV1WiJ_FF-36" vertex="1">
          <mxGeometry x="100" width="13" height="13" as="geometry">
            <mxRectangle width="13" height="13" as="alternateBounds" />
          </mxGeometry>
        </mxCell>
        <mxCell id="MjW0_bDNU7ffV1WiJ_FF-184" style="shape=partialRectangle;html=1;whiteSpace=wrap;connectable=0;strokeColor=#f18e00;overflow=hidden;fillColor=#F1B880;top=0;left=0;bottom=0;right=0;pointerEvents=1;fontSize=16;" parent="MjW0_bDNU7ffV1WiJ_FF-36" vertex="1">
          <mxGeometry x="113" width="12" height="13" as="geometry">
            <mxRectangle width="12" height="13" as="alternateBounds" />
          </mxGeometry>
        </mxCell>
        <mxCell id="MjW0_bDNU7ffV1WiJ_FF-200" style="shape=partialRectangle;html=1;whiteSpace=wrap;connectable=0;strokeColor=#f18e00;overflow=hidden;fillColor=#F1B880;top=0;left=0;bottom=0;right=0;pointerEvents=1;fontSize=16;" parent="MjW0_bDNU7ffV1WiJ_FF-36" vertex="1">
          <mxGeometry x="125" width="13" height="13" as="geometry">
            <mxRectangle width="13" height="13" as="alternateBounds" />
          </mxGeometry>
        </mxCell>
        <mxCell id="MjW0_bDNU7ffV1WiJ_FF-216" style="shape=partialRectangle;html=1;whiteSpace=wrap;connectable=0;strokeColor=#f18e00;overflow=hidden;fillColor=#F1B880;top=0;left=0;bottom=0;right=0;pointerEvents=1;fontSize=16;" parent="MjW0_bDNU7ffV1WiJ_FF-36" vertex="1">
          <mxGeometry x="138" width="13" height="13" as="geometry">
            <mxRectangle width="13" height="13" as="alternateBounds" />
          </mxGeometry>
        </mxCell>
        <mxCell id="MjW0_bDNU7ffV1WiJ_FF-232" style="shape=partialRectangle;html=1;whiteSpace=wrap;connectable=0;strokeColor=#f18e00;overflow=hidden;fillColor=#F1B880;top=0;left=0;bottom=0;right=0;pointerEvents=1;fontSize=16;" parent="MjW0_bDNU7ffV1WiJ_FF-36" vertex="1">
          <mxGeometry x="151" width="11" height="13" as="geometry">
            <mxRectangle width="11" height="13" as="alternateBounds" />
          </mxGeometry>
        </mxCell>
        <mxCell id="MjW0_bDNU7ffV1WiJ_FF-248" style="shape=partialRectangle;html=1;whiteSpace=wrap;connectable=0;strokeColor=inherit;overflow=hidden;fillColor=none;top=0;left=0;bottom=0;right=0;pointerEvents=1;fontSize=16;" parent="MjW0_bDNU7ffV1WiJ_FF-36" vertex="1">
          <mxGeometry x="162" width="13" height="13" as="geometry">
            <mxRectangle width="13" height="13" as="alternateBounds" />
          </mxGeometry>
        </mxCell>
        <mxCell id="MjW0_bDNU7ffV1WiJ_FF-264" style="shape=partialRectangle;html=1;whiteSpace=wrap;connectable=0;strokeColor=inherit;overflow=hidden;fillColor=none;top=0;left=0;bottom=0;right=0;pointerEvents=1;fontSize=16;" parent="MjW0_bDNU7ffV1WiJ_FF-36" vertex="1">
          <mxGeometry x="175" width="12" height="13" as="geometry">
            <mxRectangle width="12" height="13" as="alternateBounds" />
          </mxGeometry>
        </mxCell>
        <mxCell id="MjW0_bDNU7ffV1WiJ_FF-280" style="shape=partialRectangle;html=1;whiteSpace=wrap;connectable=0;strokeColor=inherit;overflow=hidden;fillColor=none;top=0;left=0;bottom=0;right=0;pointerEvents=1;fontSize=16;" parent="MjW0_bDNU7ffV1WiJ_FF-36" vertex="1">
          <mxGeometry x="187" width="13" height="13" as="geometry">
            <mxRectangle width="13" height="13" as="alternateBounds" />
          </mxGeometry>
        </mxCell>
        <mxCell id="MjW0_bDNU7ffV1WiJ_FF-40" style="shape=tableRow;horizontal=0;startSize=0;swimlaneHead=0;swimlaneBody=0;strokeColor=inherit;top=0;left=0;bottom=0;right=0;collapsible=0;dropTarget=0;fillColor=none;points=[[0,0.5],[1,0.5]];portConstraint=eastwest;fontSize=16;" parent="MjW0_bDNU7ffV1WiJ_FF-19" vertex="1">
          <mxGeometry y="63" width="200" height="12" as="geometry" />
        </mxCell>
        <mxCell id="MjW0_bDNU7ffV1WiJ_FF-41" style="shape=partialRectangle;html=1;whiteSpace=wrap;connectable=0;strokeColor=inherit;overflow=hidden;fillColor=none;top=0;left=0;bottom=0;right=0;pointerEvents=1;fontSize=16;" parent="MjW0_bDNU7ffV1WiJ_FF-40" vertex="1">
          <mxGeometry width="13" height="12" as="geometry">
            <mxRectangle width="13" height="12" as="alternateBounds" />
          </mxGeometry>
        </mxCell>
        <mxCell id="MjW0_bDNU7ffV1WiJ_FF-42" style="shape=partialRectangle;html=1;whiteSpace=wrap;connectable=0;strokeColor=inherit;overflow=hidden;fillColor=none;top=0;left=0;bottom=0;right=0;pointerEvents=1;fontSize=16;" parent="MjW0_bDNU7ffV1WiJ_FF-40" vertex="1">
          <mxGeometry x="13" width="12" height="12" as="geometry">
            <mxRectangle width="12" height="12" as="alternateBounds" />
          </mxGeometry>
        </mxCell>
        <mxCell id="MjW0_bDNU7ffV1WiJ_FF-43" style="shape=partialRectangle;html=1;whiteSpace=wrap;connectable=0;strokeColor=inherit;overflow=hidden;fillColor=none;top=0;left=0;bottom=0;right=0;pointerEvents=1;fontSize=16;" parent="MjW0_bDNU7ffV1WiJ_FF-40" vertex="1">
          <mxGeometry x="25" width="13" height="12" as="geometry">
            <mxRectangle width="13" height="12" as="alternateBounds" />
          </mxGeometry>
        </mxCell>
        <mxCell id="MjW0_bDNU7ffV1WiJ_FF-89" style="shape=partialRectangle;html=1;whiteSpace=wrap;connectable=0;strokeColor=inherit;overflow=hidden;fillColor=none;top=0;left=0;bottom=0;right=0;pointerEvents=1;fontSize=16;" parent="MjW0_bDNU7ffV1WiJ_FF-40" vertex="1">
          <mxGeometry x="38" width="13" height="12" as="geometry">
            <mxRectangle width="13" height="12" as="alternateBounds" />
          </mxGeometry>
        </mxCell>
        <mxCell id="MjW0_bDNU7ffV1WiJ_FF-105" style="shape=partialRectangle;html=1;whiteSpace=wrap;connectable=0;strokeColor=inherit;overflow=hidden;fillColor=none;top=0;left=0;bottom=0;right=0;pointerEvents=1;fontSize=16;" parent="MjW0_bDNU7ffV1WiJ_FF-40" vertex="1">
          <mxGeometry x="51" width="11" height="12" as="geometry">
            <mxRectangle width="11" height="12" as="alternateBounds" />
          </mxGeometry>
        </mxCell>
        <mxCell id="MjW0_bDNU7ffV1WiJ_FF-121" style="shape=partialRectangle;html=1;whiteSpace=wrap;connectable=0;strokeColor=inherit;overflow=hidden;fillColor=none;top=0;left=0;bottom=0;right=0;pointerEvents=1;fontSize=16;" parent="MjW0_bDNU7ffV1WiJ_FF-40" vertex="1">
          <mxGeometry x="62" width="13" height="12" as="geometry">
            <mxRectangle width="13" height="12" as="alternateBounds" />
          </mxGeometry>
        </mxCell>
        <mxCell id="MjW0_bDNU7ffV1WiJ_FF-137" style="shape=partialRectangle;html=1;whiteSpace=wrap;connectable=0;strokeColor=inherit;overflow=hidden;fillColor=none;top=0;left=0;bottom=0;right=0;pointerEvents=1;fontSize=16;" parent="MjW0_bDNU7ffV1WiJ_FF-40" vertex="1">
          <mxGeometry x="75" width="12" height="12" as="geometry">
            <mxRectangle width="12" height="12" as="alternateBounds" />
          </mxGeometry>
        </mxCell>
        <mxCell id="MjW0_bDNU7ffV1WiJ_FF-153" style="shape=partialRectangle;html=1;whiteSpace=wrap;connectable=0;strokeColor=inherit;overflow=hidden;fillColor=none;top=0;left=0;bottom=0;right=0;pointerEvents=1;fontSize=16;" parent="MjW0_bDNU7ffV1WiJ_FF-40" vertex="1">
          <mxGeometry x="87" width="13" height="12" as="geometry">
            <mxRectangle width="13" height="12" as="alternateBounds" />
          </mxGeometry>
        </mxCell>
        <mxCell id="MjW0_bDNU7ffV1WiJ_FF-169" style="shape=partialRectangle;html=1;whiteSpace=wrap;connectable=0;strokeColor=#f18e00;overflow=hidden;fillColor=#F1B880;top=0;left=0;bottom=0;right=0;pointerEvents=1;fontSize=16;" parent="MjW0_bDNU7ffV1WiJ_FF-40" vertex="1">
          <mxGeometry x="100" width="13" height="12" as="geometry">
            <mxRectangle width="13" height="12" as="alternateBounds" />
          </mxGeometry>
        </mxCell>
        <mxCell id="MjW0_bDNU7ffV1WiJ_FF-185" style="shape=partialRectangle;html=1;whiteSpace=wrap;connectable=0;strokeColor=#f18e00;overflow=hidden;fillColor=#F1B880;top=0;left=0;bottom=0;right=0;pointerEvents=1;fontSize=16;" parent="MjW0_bDNU7ffV1WiJ_FF-40" vertex="1">
          <mxGeometry x="113" width="12" height="12" as="geometry">
            <mxRectangle width="12" height="12" as="alternateBounds" />
          </mxGeometry>
        </mxCell>
        <mxCell id="MjW0_bDNU7ffV1WiJ_FF-201" style="shape=partialRectangle;html=1;whiteSpace=wrap;connectable=0;strokeColor=#f18e00;overflow=hidden;fillColor=#F1B880;top=0;left=0;bottom=0;right=0;pointerEvents=1;fontSize=16;" parent="MjW0_bDNU7ffV1WiJ_FF-40" vertex="1">
          <mxGeometry x="125" width="13" height="12" as="geometry">
            <mxRectangle width="13" height="12" as="alternateBounds" />
          </mxGeometry>
        </mxCell>
        <mxCell id="MjW0_bDNU7ffV1WiJ_FF-217" style="shape=partialRectangle;html=1;whiteSpace=wrap;connectable=0;strokeColor=#f18e00;overflow=hidden;fillColor=#F1B880;top=0;left=0;bottom=0;right=0;pointerEvents=1;fontSize=16;" parent="MjW0_bDNU7ffV1WiJ_FF-40" vertex="1">
          <mxGeometry x="138" width="13" height="12" as="geometry">
            <mxRectangle width="13" height="12" as="alternateBounds" />
          </mxGeometry>
        </mxCell>
        <mxCell id="MjW0_bDNU7ffV1WiJ_FF-233" style="shape=partialRectangle;html=1;whiteSpace=wrap;connectable=0;strokeColor=#f18e00;overflow=hidden;fillColor=#F1B880;top=0;left=0;bottom=0;right=0;pointerEvents=1;fontSize=16;" parent="MjW0_bDNU7ffV1WiJ_FF-40" vertex="1">
          <mxGeometry x="151" width="11" height="12" as="geometry">
            <mxRectangle width="11" height="12" as="alternateBounds" />
          </mxGeometry>
        </mxCell>
        <mxCell id="MjW0_bDNU7ffV1WiJ_FF-249" style="shape=partialRectangle;html=1;whiteSpace=wrap;connectable=0;strokeColor=#f18e00;overflow=hidden;fillColor=#F1B880;top=0;left=0;bottom=0;right=0;pointerEvents=1;fontSize=16;" parent="MjW0_bDNU7ffV1WiJ_FF-40" vertex="1">
          <mxGeometry x="162" width="13" height="12" as="geometry">
            <mxRectangle width="13" height="12" as="alternateBounds" />
          </mxGeometry>
        </mxCell>
        <mxCell id="MjW0_bDNU7ffV1WiJ_FF-265" style="shape=partialRectangle;html=1;whiteSpace=wrap;connectable=0;strokeColor=inherit;overflow=hidden;fillColor=none;top=0;left=0;bottom=0;right=0;pointerEvents=1;fontSize=16;" parent="MjW0_bDNU7ffV1WiJ_FF-40" vertex="1">
          <mxGeometry x="175" width="12" height="12" as="geometry">
            <mxRectangle width="12" height="12" as="alternateBounds" />
          </mxGeometry>
        </mxCell>
        <mxCell id="MjW0_bDNU7ffV1WiJ_FF-281" style="shape=partialRectangle;html=1;whiteSpace=wrap;connectable=0;strokeColor=inherit;overflow=hidden;fillColor=none;top=0;left=0;bottom=0;right=0;pointerEvents=1;fontSize=16;" parent="MjW0_bDNU7ffV1WiJ_FF-40" vertex="1">
          <mxGeometry x="187" width="13" height="12" as="geometry">
            <mxRectangle width="13" height="12" as="alternateBounds" />
          </mxGeometry>
        </mxCell>
        <mxCell id="MjW0_bDNU7ffV1WiJ_FF-44" style="shape=tableRow;horizontal=0;startSize=0;swimlaneHead=0;swimlaneBody=0;strokeColor=inherit;top=0;left=0;bottom=0;right=0;collapsible=0;dropTarget=0;fillColor=none;points=[[0,0.5],[1,0.5]];portConstraint=eastwest;fontSize=16;" parent="MjW0_bDNU7ffV1WiJ_FF-19" vertex="1">
          <mxGeometry y="75" width="200" height="13" as="geometry" />
        </mxCell>
        <mxCell id="MjW0_bDNU7ffV1WiJ_FF-45" style="shape=partialRectangle;html=1;whiteSpace=wrap;connectable=0;strokeColor=inherit;overflow=hidden;fillColor=none;top=0;left=0;bottom=0;right=0;pointerEvents=1;fontSize=16;" parent="MjW0_bDNU7ffV1WiJ_FF-44" vertex="1">
          <mxGeometry width="13" height="13" as="geometry">
            <mxRectangle width="13" height="13" as="alternateBounds" />
          </mxGeometry>
        </mxCell>
        <mxCell id="MjW0_bDNU7ffV1WiJ_FF-46" style="shape=partialRectangle;html=1;whiteSpace=wrap;connectable=0;strokeColor=inherit;overflow=hidden;fillColor=none;top=0;left=0;bottom=0;right=0;pointerEvents=1;fontSize=16;" parent="MjW0_bDNU7ffV1WiJ_FF-44" vertex="1">
          <mxGeometry x="13" width="12" height="13" as="geometry">
            <mxRectangle width="12" height="13" as="alternateBounds" />
          </mxGeometry>
        </mxCell>
        <mxCell id="MjW0_bDNU7ffV1WiJ_FF-47" style="shape=partialRectangle;html=1;whiteSpace=wrap;connectable=0;strokeColor=inherit;overflow=hidden;fillColor=none;top=0;left=0;bottom=0;right=0;pointerEvents=1;fontSize=16;" parent="MjW0_bDNU7ffV1WiJ_FF-44" vertex="1">
          <mxGeometry x="25" width="13" height="13" as="geometry">
            <mxRectangle width="13" height="13" as="alternateBounds" />
          </mxGeometry>
        </mxCell>
        <mxCell id="MjW0_bDNU7ffV1WiJ_FF-90" style="shape=partialRectangle;html=1;whiteSpace=wrap;connectable=0;strokeColor=inherit;overflow=hidden;fillColor=none;top=0;left=0;bottom=0;right=0;pointerEvents=1;fontSize=16;" parent="MjW0_bDNU7ffV1WiJ_FF-44" vertex="1">
          <mxGeometry x="38" width="13" height="13" as="geometry">
            <mxRectangle width="13" height="13" as="alternateBounds" />
          </mxGeometry>
        </mxCell>
        <mxCell id="MjW0_bDNU7ffV1WiJ_FF-106" style="shape=partialRectangle;html=1;whiteSpace=wrap;connectable=0;strokeColor=inherit;overflow=hidden;fillColor=none;top=0;left=0;bottom=0;right=0;pointerEvents=1;fontSize=16;" parent="MjW0_bDNU7ffV1WiJ_FF-44" vertex="1">
          <mxGeometry x="51" width="11" height="13" as="geometry">
            <mxRectangle width="11" height="13" as="alternateBounds" />
          </mxGeometry>
        </mxCell>
        <mxCell id="MjW0_bDNU7ffV1WiJ_FF-122" style="shape=partialRectangle;html=1;whiteSpace=wrap;connectable=0;strokeColor=inherit;overflow=hidden;fillColor=none;top=0;left=0;bottom=0;right=0;pointerEvents=1;fontSize=16;" parent="MjW0_bDNU7ffV1WiJ_FF-44" vertex="1">
          <mxGeometry x="62" width="13" height="13" as="geometry">
            <mxRectangle width="13" height="13" as="alternateBounds" />
          </mxGeometry>
        </mxCell>
        <mxCell id="MjW0_bDNU7ffV1WiJ_FF-138" style="shape=partialRectangle;html=1;whiteSpace=wrap;connectable=0;strokeColor=inherit;overflow=hidden;fillColor=none;top=0;left=0;bottom=0;right=0;pointerEvents=1;fontSize=16;" parent="MjW0_bDNU7ffV1WiJ_FF-44" vertex="1">
          <mxGeometry x="75" width="12" height="13" as="geometry">
            <mxRectangle width="12" height="13" as="alternateBounds" />
          </mxGeometry>
        </mxCell>
        <mxCell id="MjW0_bDNU7ffV1WiJ_FF-154" style="shape=partialRectangle;html=1;whiteSpace=wrap;connectable=0;strokeColor=inherit;overflow=hidden;fillColor=none;top=0;left=0;bottom=0;right=0;pointerEvents=1;fontSize=16;" parent="MjW0_bDNU7ffV1WiJ_FF-44" vertex="1">
          <mxGeometry x="87" width="13" height="13" as="geometry">
            <mxRectangle width="13" height="13" as="alternateBounds" />
          </mxGeometry>
        </mxCell>
        <mxCell id="MjW0_bDNU7ffV1WiJ_FF-170" style="shape=partialRectangle;html=1;whiteSpace=wrap;connectable=0;strokeColor=#f18e00;overflow=hidden;fillColor=#F1B880;top=0;left=0;bottom=0;right=0;pointerEvents=1;fontSize=16;" parent="MjW0_bDNU7ffV1WiJ_FF-44" vertex="1">
          <mxGeometry x="100" width="13" height="13" as="geometry">
            <mxRectangle width="13" height="13" as="alternateBounds" />
          </mxGeometry>
        </mxCell>
        <mxCell id="MjW0_bDNU7ffV1WiJ_FF-186" style="shape=partialRectangle;html=1;whiteSpace=wrap;connectable=0;strokeColor=#f18e00;overflow=hidden;fillColor=#F1B880;top=0;left=0;bottom=0;right=0;pointerEvents=1;fontSize=16;" parent="MjW0_bDNU7ffV1WiJ_FF-44" vertex="1">
          <mxGeometry x="113" width="12" height="13" as="geometry">
            <mxRectangle width="12" height="13" as="alternateBounds" />
          </mxGeometry>
        </mxCell>
        <mxCell id="MjW0_bDNU7ffV1WiJ_FF-202" style="shape=partialRectangle;html=1;whiteSpace=wrap;connectable=0;strokeColor=#f18e00;overflow=hidden;fillColor=#F1B880;top=0;left=0;bottom=0;right=0;pointerEvents=1;fontSize=16;" parent="MjW0_bDNU7ffV1WiJ_FF-44" vertex="1">
          <mxGeometry x="125" width="13" height="13" as="geometry">
            <mxRectangle width="13" height="13" as="alternateBounds" />
          </mxGeometry>
        </mxCell>
        <mxCell id="MjW0_bDNU7ffV1WiJ_FF-218" style="shape=partialRectangle;html=1;whiteSpace=wrap;connectable=0;strokeColor=#f18e00;overflow=hidden;fillColor=#F1B880;top=0;left=0;bottom=0;right=0;pointerEvents=1;fontSize=16;" parent="MjW0_bDNU7ffV1WiJ_FF-44" vertex="1">
          <mxGeometry x="138" width="13" height="13" as="geometry">
            <mxRectangle width="13" height="13" as="alternateBounds" />
          </mxGeometry>
        </mxCell>
        <mxCell id="MjW0_bDNU7ffV1WiJ_FF-234" style="shape=partialRectangle;html=1;whiteSpace=wrap;connectable=0;strokeColor=#f18e00;overflow=hidden;fillColor=#F1B880;top=0;left=0;bottom=0;right=0;pointerEvents=1;fontSize=16;" parent="MjW0_bDNU7ffV1WiJ_FF-44" vertex="1">
          <mxGeometry x="151" width="11" height="13" as="geometry">
            <mxRectangle width="11" height="13" as="alternateBounds" />
          </mxGeometry>
        </mxCell>
        <mxCell id="MjW0_bDNU7ffV1WiJ_FF-250" style="shape=partialRectangle;html=1;whiteSpace=wrap;connectable=0;strokeColor=#f18e00;overflow=hidden;fillColor=#F1B880;top=0;left=0;bottom=0;right=0;pointerEvents=1;fontSize=16;" parent="MjW0_bDNU7ffV1WiJ_FF-44" vertex="1">
          <mxGeometry x="162" width="13" height="13" as="geometry">
            <mxRectangle width="13" height="13" as="alternateBounds" />
          </mxGeometry>
        </mxCell>
        <mxCell id="MjW0_bDNU7ffV1WiJ_FF-266" style="shape=partialRectangle;html=1;whiteSpace=wrap;connectable=0;strokeColor=inherit;overflow=hidden;fillColor=none;top=0;left=0;bottom=0;right=0;pointerEvents=1;fontSize=16;" parent="MjW0_bDNU7ffV1WiJ_FF-44" vertex="1">
          <mxGeometry x="175" width="12" height="13" as="geometry">
            <mxRectangle width="12" height="13" as="alternateBounds" />
          </mxGeometry>
        </mxCell>
        <mxCell id="MjW0_bDNU7ffV1WiJ_FF-282" style="shape=partialRectangle;html=1;whiteSpace=wrap;connectable=0;strokeColor=inherit;overflow=hidden;fillColor=none;top=0;left=0;bottom=0;right=0;pointerEvents=1;fontSize=16;" parent="MjW0_bDNU7ffV1WiJ_FF-44" vertex="1">
          <mxGeometry x="187" width="13" height="13" as="geometry">
            <mxRectangle width="13" height="13" as="alternateBounds" />
          </mxGeometry>
        </mxCell>
        <mxCell id="MjW0_bDNU7ffV1WiJ_FF-48" style="shape=tableRow;horizontal=0;startSize=0;swimlaneHead=0;swimlaneBody=0;strokeColor=inherit;top=0;left=0;bottom=0;right=0;collapsible=0;dropTarget=0;fillColor=none;points=[[0,0.5],[1,0.5]];portConstraint=eastwest;fontSize=16;" parent="MjW0_bDNU7ffV1WiJ_FF-19" vertex="1">
          <mxGeometry y="88" width="200" height="12" as="geometry" />
        </mxCell>
        <mxCell id="MjW0_bDNU7ffV1WiJ_FF-49" style="shape=partialRectangle;html=1;whiteSpace=wrap;connectable=0;strokeColor=inherit;overflow=hidden;fillColor=none;top=0;left=0;bottom=0;right=0;pointerEvents=1;fontSize=16;" parent="MjW0_bDNU7ffV1WiJ_FF-48" vertex="1">
          <mxGeometry width="13" height="12" as="geometry">
            <mxRectangle width="13" height="12" as="alternateBounds" />
          </mxGeometry>
        </mxCell>
        <mxCell id="MjW0_bDNU7ffV1WiJ_FF-50" style="shape=partialRectangle;html=1;whiteSpace=wrap;connectable=0;strokeColor=inherit;overflow=hidden;fillColor=none;top=0;left=0;bottom=0;right=0;pointerEvents=1;fontSize=16;" parent="MjW0_bDNU7ffV1WiJ_FF-48" vertex="1">
          <mxGeometry x="13" width="12" height="12" as="geometry">
            <mxRectangle width="12" height="12" as="alternateBounds" />
          </mxGeometry>
        </mxCell>
        <mxCell id="MjW0_bDNU7ffV1WiJ_FF-51" style="shape=partialRectangle;html=1;whiteSpace=wrap;connectable=0;strokeColor=inherit;overflow=hidden;fillColor=none;top=0;left=0;bottom=0;right=0;pointerEvents=1;fontSize=16;" parent="MjW0_bDNU7ffV1WiJ_FF-48" vertex="1">
          <mxGeometry x="25" width="13" height="12" as="geometry">
            <mxRectangle width="13" height="12" as="alternateBounds" />
          </mxGeometry>
        </mxCell>
        <mxCell id="MjW0_bDNU7ffV1WiJ_FF-91" style="shape=partialRectangle;html=1;whiteSpace=wrap;connectable=0;strokeColor=inherit;overflow=hidden;fillColor=none;top=0;left=0;bottom=0;right=0;pointerEvents=1;fontSize=16;" parent="MjW0_bDNU7ffV1WiJ_FF-48" vertex="1">
          <mxGeometry x="38" width="13" height="12" as="geometry">
            <mxRectangle width="13" height="12" as="alternateBounds" />
          </mxGeometry>
        </mxCell>
        <mxCell id="MjW0_bDNU7ffV1WiJ_FF-107" style="shape=partialRectangle;html=1;whiteSpace=wrap;connectable=0;strokeColor=inherit;overflow=hidden;fillColor=none;top=0;left=0;bottom=0;right=0;pointerEvents=1;fontSize=16;" parent="MjW0_bDNU7ffV1WiJ_FF-48" vertex="1">
          <mxGeometry x="51" width="11" height="12" as="geometry">
            <mxRectangle width="11" height="12" as="alternateBounds" />
          </mxGeometry>
        </mxCell>
        <mxCell id="MjW0_bDNU7ffV1WiJ_FF-123" style="shape=partialRectangle;html=1;whiteSpace=wrap;connectable=0;strokeColor=inherit;overflow=hidden;fillColor=none;top=0;left=0;bottom=0;right=0;pointerEvents=1;fontSize=16;" parent="MjW0_bDNU7ffV1WiJ_FF-48" vertex="1">
          <mxGeometry x="62" width="13" height="12" as="geometry">
            <mxRectangle width="13" height="12" as="alternateBounds" />
          </mxGeometry>
        </mxCell>
        <mxCell id="MjW0_bDNU7ffV1WiJ_FF-139" style="shape=partialRectangle;html=1;whiteSpace=wrap;connectable=0;strokeColor=inherit;overflow=hidden;fillColor=none;top=0;left=0;bottom=0;right=0;pointerEvents=1;fontSize=16;" parent="MjW0_bDNU7ffV1WiJ_FF-48" vertex="1">
          <mxGeometry x="75" width="12" height="12" as="geometry">
            <mxRectangle width="12" height="12" as="alternateBounds" />
          </mxGeometry>
        </mxCell>
        <mxCell id="MjW0_bDNU7ffV1WiJ_FF-155" style="shape=partialRectangle;html=1;whiteSpace=wrap;connectable=0;strokeColor=inherit;overflow=hidden;fillColor=none;top=0;left=0;bottom=0;right=0;pointerEvents=1;fontSize=16;" parent="MjW0_bDNU7ffV1WiJ_FF-48" vertex="1">
          <mxGeometry x="87" width="13" height="12" as="geometry">
            <mxRectangle width="13" height="12" as="alternateBounds" />
          </mxGeometry>
        </mxCell>
        <mxCell id="MjW0_bDNU7ffV1WiJ_FF-171" style="shape=partialRectangle;html=1;whiteSpace=wrap;connectable=0;strokeColor=inherit;overflow=hidden;fillColor=none;top=0;left=0;bottom=0;right=0;pointerEvents=1;fontSize=16;" parent="MjW0_bDNU7ffV1WiJ_FF-48" vertex="1">
          <mxGeometry x="100" width="13" height="12" as="geometry">
            <mxRectangle width="13" height="12" as="alternateBounds" />
          </mxGeometry>
        </mxCell>
        <mxCell id="MjW0_bDNU7ffV1WiJ_FF-187" style="shape=partialRectangle;html=1;whiteSpace=wrap;connectable=0;strokeColor=#f18e00;overflow=hidden;fillColor=#F1B880;top=0;left=0;bottom=0;right=0;pointerEvents=1;fontSize=16;" parent="MjW0_bDNU7ffV1WiJ_FF-48" vertex="1">
          <mxGeometry x="113" width="12" height="12" as="geometry">
            <mxRectangle width="12" height="12" as="alternateBounds" />
          </mxGeometry>
        </mxCell>
        <mxCell id="MjW0_bDNU7ffV1WiJ_FF-203" style="shape=partialRectangle;html=1;whiteSpace=wrap;connectable=0;strokeColor=#f18e00;overflow=hidden;fillColor=#F1B880;top=0;left=0;bottom=0;right=0;pointerEvents=1;fontSize=16;" parent="MjW0_bDNU7ffV1WiJ_FF-48" vertex="1">
          <mxGeometry x="125" width="13" height="12" as="geometry">
            <mxRectangle width="13" height="12" as="alternateBounds" />
          </mxGeometry>
        </mxCell>
        <mxCell id="MjW0_bDNU7ffV1WiJ_FF-219" style="shape=partialRectangle;html=1;whiteSpace=wrap;connectable=0;strokeColor=#f18e00;overflow=hidden;fillColor=#F1B880;top=0;left=0;bottom=0;right=0;pointerEvents=1;fontSize=16;" parent="MjW0_bDNU7ffV1WiJ_FF-48" vertex="1">
          <mxGeometry x="138" width="13" height="12" as="geometry">
            <mxRectangle width="13" height="12" as="alternateBounds" />
          </mxGeometry>
        </mxCell>
        <mxCell id="MjW0_bDNU7ffV1WiJ_FF-235" style="shape=partialRectangle;html=1;whiteSpace=wrap;connectable=0;strokeColor=#f18e00;overflow=hidden;fillColor=#F1B880;top=0;left=0;bottom=0;right=0;pointerEvents=1;fontSize=16;" parent="MjW0_bDNU7ffV1WiJ_FF-48" vertex="1">
          <mxGeometry x="151" width="11" height="12" as="geometry">
            <mxRectangle width="11" height="12" as="alternateBounds" />
          </mxGeometry>
        </mxCell>
        <mxCell id="MjW0_bDNU7ffV1WiJ_FF-251" style="shape=partialRectangle;html=1;whiteSpace=wrap;connectable=0;strokeColor=#f18e00;overflow=hidden;fillColor=#F1B880;top=0;left=0;bottom=0;right=0;pointerEvents=1;fontSize=16;" parent="MjW0_bDNU7ffV1WiJ_FF-48" vertex="1">
          <mxGeometry x="162" width="13" height="12" as="geometry">
            <mxRectangle width="13" height="12" as="alternateBounds" />
          </mxGeometry>
        </mxCell>
        <mxCell id="MjW0_bDNU7ffV1WiJ_FF-267" style="shape=partialRectangle;html=1;whiteSpace=wrap;connectable=0;strokeColor=inherit;overflow=hidden;fillColor=none;top=0;left=0;bottom=0;right=0;pointerEvents=1;fontSize=16;" parent="MjW0_bDNU7ffV1WiJ_FF-48" vertex="1">
          <mxGeometry x="175" width="12" height="12" as="geometry">
            <mxRectangle width="12" height="12" as="alternateBounds" />
          </mxGeometry>
        </mxCell>
        <mxCell id="MjW0_bDNU7ffV1WiJ_FF-283" style="shape=partialRectangle;html=1;whiteSpace=wrap;connectable=0;strokeColor=inherit;overflow=hidden;fillColor=none;top=0;left=0;bottom=0;right=0;pointerEvents=1;fontSize=16;" parent="MjW0_bDNU7ffV1WiJ_FF-48" vertex="1">
          <mxGeometry x="187" width="13" height="12" as="geometry">
            <mxRectangle width="13" height="12" as="alternateBounds" />
          </mxGeometry>
        </mxCell>
        <mxCell id="MjW0_bDNU7ffV1WiJ_FF-52" style="shape=tableRow;horizontal=0;startSize=0;swimlaneHead=0;swimlaneBody=0;strokeColor=inherit;top=0;left=0;bottom=0;right=0;collapsible=0;dropTarget=0;fillColor=none;points=[[0,0.5],[1,0.5]];portConstraint=eastwest;fontSize=16;" parent="MjW0_bDNU7ffV1WiJ_FF-19" vertex="1">
          <mxGeometry y="100" width="200" height="13" as="geometry" />
        </mxCell>
        <mxCell id="MjW0_bDNU7ffV1WiJ_FF-53" style="shape=partialRectangle;html=1;whiteSpace=wrap;connectable=0;strokeColor=inherit;overflow=hidden;fillColor=none;top=0;left=0;bottom=0;right=0;pointerEvents=1;fontSize=16;" parent="MjW0_bDNU7ffV1WiJ_FF-52" vertex="1">
          <mxGeometry width="13" height="13" as="geometry">
            <mxRectangle width="13" height="13" as="alternateBounds" />
          </mxGeometry>
        </mxCell>
        <mxCell id="MjW0_bDNU7ffV1WiJ_FF-54" style="shape=partialRectangle;html=1;whiteSpace=wrap;connectable=0;strokeColor=inherit;overflow=hidden;fillColor=none;top=0;left=0;bottom=0;right=0;pointerEvents=1;fontSize=16;" parent="MjW0_bDNU7ffV1WiJ_FF-52" vertex="1">
          <mxGeometry x="13" width="12" height="13" as="geometry">
            <mxRectangle width="12" height="13" as="alternateBounds" />
          </mxGeometry>
        </mxCell>
        <mxCell id="MjW0_bDNU7ffV1WiJ_FF-55" style="shape=partialRectangle;html=1;whiteSpace=wrap;connectable=0;strokeColor=inherit;overflow=hidden;fillColor=none;top=0;left=0;bottom=0;right=0;pointerEvents=1;fontSize=16;" parent="MjW0_bDNU7ffV1WiJ_FF-52" vertex="1">
          <mxGeometry x="25" width="13" height="13" as="geometry">
            <mxRectangle width="13" height="13" as="alternateBounds" />
          </mxGeometry>
        </mxCell>
        <mxCell id="MjW0_bDNU7ffV1WiJ_FF-92" style="shape=partialRectangle;html=1;whiteSpace=wrap;connectable=0;strokeColor=inherit;overflow=hidden;fillColor=none;top=0;left=0;bottom=0;right=0;pointerEvents=1;fontSize=16;" parent="MjW0_bDNU7ffV1WiJ_FF-52" vertex="1">
          <mxGeometry x="38" width="13" height="13" as="geometry">
            <mxRectangle width="13" height="13" as="alternateBounds" />
          </mxGeometry>
        </mxCell>
        <mxCell id="MjW0_bDNU7ffV1WiJ_FF-108" style="shape=partialRectangle;html=1;whiteSpace=wrap;connectable=0;strokeColor=inherit;overflow=hidden;fillColor=none;top=0;left=0;bottom=0;right=0;pointerEvents=1;fontSize=16;" parent="MjW0_bDNU7ffV1WiJ_FF-52" vertex="1">
          <mxGeometry x="51" width="11" height="13" as="geometry">
            <mxRectangle width="11" height="13" as="alternateBounds" />
          </mxGeometry>
        </mxCell>
        <mxCell id="MjW0_bDNU7ffV1WiJ_FF-124" style="shape=partialRectangle;html=1;whiteSpace=wrap;connectable=0;strokeColor=inherit;overflow=hidden;fillColor=none;top=0;left=0;bottom=0;right=0;pointerEvents=1;fontSize=16;" parent="MjW0_bDNU7ffV1WiJ_FF-52" vertex="1">
          <mxGeometry x="62" width="13" height="13" as="geometry">
            <mxRectangle width="13" height="13" as="alternateBounds" />
          </mxGeometry>
        </mxCell>
        <mxCell id="MjW0_bDNU7ffV1WiJ_FF-140" style="shape=partialRectangle;html=1;whiteSpace=wrap;connectable=0;strokeColor=inherit;overflow=hidden;fillColor=none;top=0;left=0;bottom=0;right=0;pointerEvents=1;fontSize=16;" parent="MjW0_bDNU7ffV1WiJ_FF-52" vertex="1">
          <mxGeometry x="75" width="12" height="13" as="geometry">
            <mxRectangle width="12" height="13" as="alternateBounds" />
          </mxGeometry>
        </mxCell>
        <mxCell id="MjW0_bDNU7ffV1WiJ_FF-156" style="shape=partialRectangle;html=1;whiteSpace=wrap;connectable=0;strokeColor=inherit;overflow=hidden;fillColor=none;top=0;left=0;bottom=0;right=0;pointerEvents=1;fontSize=16;" parent="MjW0_bDNU7ffV1WiJ_FF-52" vertex="1">
          <mxGeometry x="87" width="13" height="13" as="geometry">
            <mxRectangle width="13" height="13" as="alternateBounds" />
          </mxGeometry>
        </mxCell>
        <mxCell id="MjW0_bDNU7ffV1WiJ_FF-172" style="shape=partialRectangle;html=1;whiteSpace=wrap;connectable=0;strokeColor=#f18e00;overflow=hidden;fillColor=#F1B880;top=0;left=0;bottom=0;right=0;pointerEvents=1;fontSize=16;" parent="MjW0_bDNU7ffV1WiJ_FF-52" vertex="1">
          <mxGeometry x="100" width="13" height="13" as="geometry">
            <mxRectangle width="13" height="13" as="alternateBounds" />
          </mxGeometry>
        </mxCell>
        <mxCell id="MjW0_bDNU7ffV1WiJ_FF-188" style="shape=partialRectangle;html=1;whiteSpace=wrap;connectable=0;strokeColor=#f18e00;overflow=hidden;fillColor=#F1B880;top=0;left=0;bottom=0;right=0;pointerEvents=1;fontSize=16;" parent="MjW0_bDNU7ffV1WiJ_FF-52" vertex="1">
          <mxGeometry x="113" width="12" height="13" as="geometry">
            <mxRectangle width="12" height="13" as="alternateBounds" />
          </mxGeometry>
        </mxCell>
        <mxCell id="MjW0_bDNU7ffV1WiJ_FF-204" style="shape=partialRectangle;html=1;whiteSpace=wrap;connectable=0;strokeColor=#f18e00;overflow=hidden;fillColor=#F1B880;top=0;left=0;bottom=0;right=0;pointerEvents=1;fontSize=16;" parent="MjW0_bDNU7ffV1WiJ_FF-52" vertex="1">
          <mxGeometry x="125" width="13" height="13" as="geometry">
            <mxRectangle width="13" height="13" as="alternateBounds" />
          </mxGeometry>
        </mxCell>
        <mxCell id="MjW0_bDNU7ffV1WiJ_FF-220" style="shape=partialRectangle;html=1;whiteSpace=wrap;connectable=0;strokeColor=#f18e00;overflow=hidden;fillColor=#F1B880;top=0;left=0;bottom=0;right=0;pointerEvents=1;fontSize=16;" parent="MjW0_bDNU7ffV1WiJ_FF-52" vertex="1">
          <mxGeometry x="138" width="13" height="13" as="geometry">
            <mxRectangle width="13" height="13" as="alternateBounds" />
          </mxGeometry>
        </mxCell>
        <mxCell id="MjW0_bDNU7ffV1WiJ_FF-236" style="shape=partialRectangle;html=1;whiteSpace=wrap;connectable=0;strokeColor=#f18e00;overflow=hidden;fillColor=#F1B880;top=0;left=0;bottom=0;right=0;pointerEvents=1;fontSize=16;" parent="MjW0_bDNU7ffV1WiJ_FF-52" vertex="1">
          <mxGeometry x="151" width="11" height="13" as="geometry">
            <mxRectangle width="11" height="13" as="alternateBounds" />
          </mxGeometry>
        </mxCell>
        <mxCell id="MjW0_bDNU7ffV1WiJ_FF-252" style="shape=partialRectangle;html=1;whiteSpace=wrap;connectable=0;strokeColor=#f18e00;overflow=hidden;fillColor=#F1B880;top=0;left=0;bottom=0;right=0;pointerEvents=1;fontSize=16;" parent="MjW0_bDNU7ffV1WiJ_FF-52" vertex="1">
          <mxGeometry x="162" width="13" height="13" as="geometry">
            <mxRectangle width="13" height="13" as="alternateBounds" />
          </mxGeometry>
        </mxCell>
        <mxCell id="MjW0_bDNU7ffV1WiJ_FF-268" style="shape=partialRectangle;html=1;whiteSpace=wrap;connectable=0;strokeColor=inherit;overflow=hidden;fillColor=none;top=0;left=0;bottom=0;right=0;pointerEvents=1;fontSize=16;" parent="MjW0_bDNU7ffV1WiJ_FF-52" vertex="1">
          <mxGeometry x="175" width="12" height="13" as="geometry">
            <mxRectangle width="12" height="13" as="alternateBounds" />
          </mxGeometry>
        </mxCell>
        <mxCell id="MjW0_bDNU7ffV1WiJ_FF-284" style="shape=partialRectangle;html=1;whiteSpace=wrap;connectable=0;strokeColor=inherit;overflow=hidden;fillColor=none;top=0;left=0;bottom=0;right=0;pointerEvents=1;fontSize=16;" parent="MjW0_bDNU7ffV1WiJ_FF-52" vertex="1">
          <mxGeometry x="187" width="13" height="13" as="geometry">
            <mxRectangle width="13" height="13" as="alternateBounds" />
          </mxGeometry>
        </mxCell>
        <mxCell id="MjW0_bDNU7ffV1WiJ_FF-56" style="shape=tableRow;horizontal=0;startSize=0;swimlaneHead=0;swimlaneBody=0;strokeColor=inherit;top=0;left=0;bottom=0;right=0;collapsible=0;dropTarget=0;fillColor=none;points=[[0,0.5],[1,0.5]];portConstraint=eastwest;fontSize=16;" parent="MjW0_bDNU7ffV1WiJ_FF-19" vertex="1">
          <mxGeometry y="113" width="200" height="12" as="geometry" />
        </mxCell>
        <mxCell id="MjW0_bDNU7ffV1WiJ_FF-57" style="shape=partialRectangle;html=1;whiteSpace=wrap;connectable=0;strokeColor=inherit;overflow=hidden;fillColor=none;top=0;left=0;bottom=0;right=0;pointerEvents=1;fontSize=16;" parent="MjW0_bDNU7ffV1WiJ_FF-56" vertex="1">
          <mxGeometry width="13" height="12" as="geometry">
            <mxRectangle width="13" height="12" as="alternateBounds" />
          </mxGeometry>
        </mxCell>
        <mxCell id="MjW0_bDNU7ffV1WiJ_FF-58" style="shape=partialRectangle;html=1;whiteSpace=wrap;connectable=0;strokeColor=inherit;overflow=hidden;fillColor=none;top=0;left=0;bottom=0;right=0;pointerEvents=1;fontSize=16;" parent="MjW0_bDNU7ffV1WiJ_FF-56" vertex="1">
          <mxGeometry x="13" width="12" height="12" as="geometry">
            <mxRectangle width="12" height="12" as="alternateBounds" />
          </mxGeometry>
        </mxCell>
        <mxCell id="MjW0_bDNU7ffV1WiJ_FF-59" style="shape=partialRectangle;html=1;whiteSpace=wrap;connectable=0;strokeColor=inherit;overflow=hidden;fillColor=none;top=0;left=0;bottom=0;right=0;pointerEvents=1;fontSize=16;" parent="MjW0_bDNU7ffV1WiJ_FF-56" vertex="1">
          <mxGeometry x="25" width="13" height="12" as="geometry">
            <mxRectangle width="13" height="12" as="alternateBounds" />
          </mxGeometry>
        </mxCell>
        <mxCell id="MjW0_bDNU7ffV1WiJ_FF-93" style="shape=partialRectangle;html=1;whiteSpace=wrap;connectable=0;strokeColor=inherit;overflow=hidden;fillColor=none;top=0;left=0;bottom=0;right=0;pointerEvents=1;fontSize=16;" parent="MjW0_bDNU7ffV1WiJ_FF-56" vertex="1">
          <mxGeometry x="38" width="13" height="12" as="geometry">
            <mxRectangle width="13" height="12" as="alternateBounds" />
          </mxGeometry>
        </mxCell>
        <mxCell id="MjW0_bDNU7ffV1WiJ_FF-109" style="shape=partialRectangle;html=1;whiteSpace=wrap;connectable=0;strokeColor=inherit;overflow=hidden;fillColor=none;top=0;left=0;bottom=0;right=0;pointerEvents=1;fontSize=16;" parent="MjW0_bDNU7ffV1WiJ_FF-56" vertex="1">
          <mxGeometry x="51" width="11" height="12" as="geometry">
            <mxRectangle width="11" height="12" as="alternateBounds" />
          </mxGeometry>
        </mxCell>
        <mxCell id="MjW0_bDNU7ffV1WiJ_FF-125" style="shape=partialRectangle;html=1;whiteSpace=wrap;connectable=0;strokeColor=inherit;overflow=hidden;fillColor=none;top=0;left=0;bottom=0;right=0;pointerEvents=1;fontSize=16;" parent="MjW0_bDNU7ffV1WiJ_FF-56" vertex="1">
          <mxGeometry x="62" width="13" height="12" as="geometry">
            <mxRectangle width="13" height="12" as="alternateBounds" />
          </mxGeometry>
        </mxCell>
        <mxCell id="MjW0_bDNU7ffV1WiJ_FF-141" style="shape=partialRectangle;html=1;whiteSpace=wrap;connectable=0;strokeColor=inherit;overflow=hidden;fillColor=none;top=0;left=0;bottom=0;right=0;pointerEvents=1;fontSize=16;" parent="MjW0_bDNU7ffV1WiJ_FF-56" vertex="1">
          <mxGeometry x="75" width="12" height="12" as="geometry">
            <mxRectangle width="12" height="12" as="alternateBounds" />
          </mxGeometry>
        </mxCell>
        <mxCell id="MjW0_bDNU7ffV1WiJ_FF-157" style="shape=partialRectangle;html=1;whiteSpace=wrap;connectable=0;strokeColor=inherit;overflow=hidden;fillColor=none;top=0;left=0;bottom=0;right=0;pointerEvents=1;fontSize=16;" parent="MjW0_bDNU7ffV1WiJ_FF-56" vertex="1">
          <mxGeometry x="87" width="13" height="12" as="geometry">
            <mxRectangle width="13" height="12" as="alternateBounds" />
          </mxGeometry>
        </mxCell>
        <mxCell id="MjW0_bDNU7ffV1WiJ_FF-173" style="shape=partialRectangle;html=1;whiteSpace=wrap;connectable=0;strokeColor=#f18e00;overflow=hidden;fillColor=#F1B880;top=0;left=0;bottom=0;right=0;pointerEvents=1;fontSize=16;" parent="MjW0_bDNU7ffV1WiJ_FF-56" vertex="1">
          <mxGeometry x="100" width="13" height="12" as="geometry">
            <mxRectangle width="13" height="12" as="alternateBounds" />
          </mxGeometry>
        </mxCell>
        <mxCell id="MjW0_bDNU7ffV1WiJ_FF-189" style="shape=partialRectangle;html=1;whiteSpace=wrap;connectable=0;strokeColor=#f18e00;overflow=hidden;fillColor=#F1B880;top=0;left=0;bottom=0;right=0;pointerEvents=1;fontSize=16;" parent="MjW0_bDNU7ffV1WiJ_FF-56" vertex="1">
          <mxGeometry x="113" width="12" height="12" as="geometry">
            <mxRectangle width="12" height="12" as="alternateBounds" />
          </mxGeometry>
        </mxCell>
        <mxCell id="MjW0_bDNU7ffV1WiJ_FF-205" style="shape=partialRectangle;html=1;whiteSpace=wrap;connectable=0;strokeColor=#f18e00;overflow=hidden;fillColor=#F1B880;top=0;left=0;bottom=0;right=0;pointerEvents=1;fontSize=16;" parent="MjW0_bDNU7ffV1WiJ_FF-56" vertex="1">
          <mxGeometry x="125" width="13" height="12" as="geometry">
            <mxRectangle width="13" height="12" as="alternateBounds" />
          </mxGeometry>
        </mxCell>
        <mxCell id="MjW0_bDNU7ffV1WiJ_FF-221" style="shape=partialRectangle;html=1;whiteSpace=wrap;connectable=0;strokeColor=#f18e00;overflow=hidden;fillColor=#F1B880;top=0;left=0;bottom=0;right=0;pointerEvents=1;fontSize=16;" parent="MjW0_bDNU7ffV1WiJ_FF-56" vertex="1">
          <mxGeometry x="138" width="13" height="12" as="geometry">
            <mxRectangle width="13" height="12" as="alternateBounds" />
          </mxGeometry>
        </mxCell>
        <mxCell id="MjW0_bDNU7ffV1WiJ_FF-237" style="shape=partialRectangle;html=1;whiteSpace=wrap;connectable=0;strokeColor=#f18e00;overflow=hidden;fillColor=#F1B880;top=0;left=0;bottom=0;right=0;pointerEvents=1;fontSize=16;" parent="MjW0_bDNU7ffV1WiJ_FF-56" vertex="1">
          <mxGeometry x="151" width="11" height="12" as="geometry">
            <mxRectangle width="11" height="12" as="alternateBounds" />
          </mxGeometry>
        </mxCell>
        <mxCell id="MjW0_bDNU7ffV1WiJ_FF-253" style="shape=partialRectangle;html=1;whiteSpace=wrap;connectable=0;strokeColor=#f18e00;overflow=hidden;fillColor=#F1B880;top=0;left=0;bottom=0;right=0;pointerEvents=1;fontSize=16;" parent="MjW0_bDNU7ffV1WiJ_FF-56" vertex="1">
          <mxGeometry x="162" width="13" height="12" as="geometry">
            <mxRectangle width="13" height="12" as="alternateBounds" />
          </mxGeometry>
        </mxCell>
        <mxCell id="MjW0_bDNU7ffV1WiJ_FF-269" style="shape=partialRectangle;html=1;whiteSpace=wrap;connectable=0;strokeColor=inherit;overflow=hidden;fillColor=none;top=0;left=0;bottom=0;right=0;pointerEvents=1;fontSize=16;" parent="MjW0_bDNU7ffV1WiJ_FF-56" vertex="1">
          <mxGeometry x="175" width="12" height="12" as="geometry">
            <mxRectangle width="12" height="12" as="alternateBounds" />
          </mxGeometry>
        </mxCell>
        <mxCell id="MjW0_bDNU7ffV1WiJ_FF-285" style="shape=partialRectangle;html=1;whiteSpace=wrap;connectable=0;strokeColor=inherit;overflow=hidden;fillColor=none;top=0;left=0;bottom=0;right=0;pointerEvents=1;fontSize=16;" parent="MjW0_bDNU7ffV1WiJ_FF-56" vertex="1">
          <mxGeometry x="187" width="13" height="12" as="geometry">
            <mxRectangle width="13" height="12" as="alternateBounds" />
          </mxGeometry>
        </mxCell>
        <mxCell id="MjW0_bDNU7ffV1WiJ_FF-60" style="shape=tableRow;horizontal=0;startSize=0;swimlaneHead=0;swimlaneBody=0;strokeColor=inherit;top=0;left=0;bottom=0;right=0;collapsible=0;dropTarget=0;fillColor=none;points=[[0,0.5],[1,0.5]];portConstraint=eastwest;fontSize=16;" parent="MjW0_bDNU7ffV1WiJ_FF-19" vertex="1">
          <mxGeometry y="125" width="200" height="13" as="geometry" />
        </mxCell>
        <mxCell id="MjW0_bDNU7ffV1WiJ_FF-61" style="shape=partialRectangle;html=1;whiteSpace=wrap;connectable=0;strokeColor=inherit;overflow=hidden;fillColor=none;top=0;left=0;bottom=0;right=0;pointerEvents=1;fontSize=16;" parent="MjW0_bDNU7ffV1WiJ_FF-60" vertex="1">
          <mxGeometry width="13" height="13" as="geometry">
            <mxRectangle width="13" height="13" as="alternateBounds" />
          </mxGeometry>
        </mxCell>
        <mxCell id="MjW0_bDNU7ffV1WiJ_FF-62" style="shape=partialRectangle;html=1;whiteSpace=wrap;connectable=0;strokeColor=inherit;overflow=hidden;fillColor=none;top=0;left=0;bottom=0;right=0;pointerEvents=1;fontSize=16;" parent="MjW0_bDNU7ffV1WiJ_FF-60" vertex="1">
          <mxGeometry x="13" width="12" height="13" as="geometry">
            <mxRectangle width="12" height="13" as="alternateBounds" />
          </mxGeometry>
        </mxCell>
        <mxCell id="MjW0_bDNU7ffV1WiJ_FF-63" style="shape=partialRectangle;html=1;whiteSpace=wrap;connectable=0;strokeColor=inherit;overflow=hidden;fillColor=none;top=0;left=0;bottom=0;right=0;pointerEvents=1;fontSize=16;" parent="MjW0_bDNU7ffV1WiJ_FF-60" vertex="1">
          <mxGeometry x="25" width="13" height="13" as="geometry">
            <mxRectangle width="13" height="13" as="alternateBounds" />
          </mxGeometry>
        </mxCell>
        <mxCell id="MjW0_bDNU7ffV1WiJ_FF-94" style="shape=partialRectangle;html=1;whiteSpace=wrap;connectable=0;strokeColor=inherit;overflow=hidden;fillColor=none;top=0;left=0;bottom=0;right=0;pointerEvents=1;fontSize=16;" parent="MjW0_bDNU7ffV1WiJ_FF-60" vertex="1">
          <mxGeometry x="38" width="13" height="13" as="geometry">
            <mxRectangle width="13" height="13" as="alternateBounds" />
          </mxGeometry>
        </mxCell>
        <mxCell id="MjW0_bDNU7ffV1WiJ_FF-110" style="shape=partialRectangle;html=1;whiteSpace=wrap;connectable=0;strokeColor=inherit;overflow=hidden;fillColor=none;top=0;left=0;bottom=0;right=0;pointerEvents=1;fontSize=16;" parent="MjW0_bDNU7ffV1WiJ_FF-60" vertex="1">
          <mxGeometry x="51" width="11" height="13" as="geometry">
            <mxRectangle width="11" height="13" as="alternateBounds" />
          </mxGeometry>
        </mxCell>
        <mxCell id="MjW0_bDNU7ffV1WiJ_FF-126" style="shape=partialRectangle;html=1;whiteSpace=wrap;connectable=0;strokeColor=inherit;overflow=hidden;fillColor=none;top=0;left=0;bottom=0;right=0;pointerEvents=1;fontSize=16;" parent="MjW0_bDNU7ffV1WiJ_FF-60" vertex="1">
          <mxGeometry x="62" width="13" height="13" as="geometry">
            <mxRectangle width="13" height="13" as="alternateBounds" />
          </mxGeometry>
        </mxCell>
        <mxCell id="MjW0_bDNU7ffV1WiJ_FF-142" style="shape=partialRectangle;html=1;whiteSpace=wrap;connectable=0;strokeColor=inherit;overflow=hidden;fillColor=none;top=0;left=0;bottom=0;right=0;pointerEvents=1;fontSize=16;" parent="MjW0_bDNU7ffV1WiJ_FF-60" vertex="1">
          <mxGeometry x="75" width="12" height="13" as="geometry">
            <mxRectangle width="12" height="13" as="alternateBounds" />
          </mxGeometry>
        </mxCell>
        <mxCell id="MjW0_bDNU7ffV1WiJ_FF-158" style="shape=partialRectangle;html=1;whiteSpace=wrap;connectable=0;strokeColor=inherit;overflow=hidden;fillColor=none;top=0;left=0;bottom=0;right=0;pointerEvents=1;fontSize=16;" parent="MjW0_bDNU7ffV1WiJ_FF-60" vertex="1">
          <mxGeometry x="87" width="13" height="13" as="geometry">
            <mxRectangle width="13" height="13" as="alternateBounds" />
          </mxGeometry>
        </mxCell>
        <mxCell id="MjW0_bDNU7ffV1WiJ_FF-174" style="shape=partialRectangle;html=1;whiteSpace=wrap;connectable=0;strokeColor=#f18e00;overflow=hidden;fillColor=#F1B880;top=0;left=0;bottom=0;right=0;pointerEvents=1;fontSize=16;" parent="MjW0_bDNU7ffV1WiJ_FF-60" vertex="1">
          <mxGeometry x="100" width="13" height="13" as="geometry">
            <mxRectangle width="13" height="13" as="alternateBounds" />
          </mxGeometry>
        </mxCell>
        <mxCell id="MjW0_bDNU7ffV1WiJ_FF-190" style="shape=partialRectangle;html=1;whiteSpace=wrap;connectable=0;strokeColor=#f18e00;overflow=hidden;fillColor=#F1B880;top=0;left=0;bottom=0;right=0;pointerEvents=1;fontSize=16;" parent="MjW0_bDNU7ffV1WiJ_FF-60" vertex="1">
          <mxGeometry x="113" width="12" height="13" as="geometry">
            <mxRectangle width="12" height="13" as="alternateBounds" />
          </mxGeometry>
        </mxCell>
        <mxCell id="MjW0_bDNU7ffV1WiJ_FF-206" style="shape=partialRectangle;html=1;whiteSpace=wrap;connectable=0;strokeColor=#f18e00;overflow=hidden;fillColor=#F1B880;top=0;left=0;bottom=0;right=0;pointerEvents=1;fontSize=16;" parent="MjW0_bDNU7ffV1WiJ_FF-60" vertex="1">
          <mxGeometry x="125" width="13" height="13" as="geometry">
            <mxRectangle width="13" height="13" as="alternateBounds" />
          </mxGeometry>
        </mxCell>
        <mxCell id="MjW0_bDNU7ffV1WiJ_FF-222" style="shape=partialRectangle;html=1;whiteSpace=wrap;connectable=0;strokeColor=#f18e00;overflow=hidden;fillColor=#F1B880;top=0;left=0;bottom=0;right=0;pointerEvents=1;fontSize=16;" parent="MjW0_bDNU7ffV1WiJ_FF-60" vertex="1">
          <mxGeometry x="138" width="13" height="13" as="geometry">
            <mxRectangle width="13" height="13" as="alternateBounds" />
          </mxGeometry>
        </mxCell>
        <mxCell id="MjW0_bDNU7ffV1WiJ_FF-238" style="shape=partialRectangle;html=1;whiteSpace=wrap;connectable=0;strokeColor=#f18e00;overflow=hidden;fillColor=#F1B880;top=0;left=0;bottom=0;right=0;pointerEvents=1;fontSize=16;" parent="MjW0_bDNU7ffV1WiJ_FF-60" vertex="1">
          <mxGeometry x="151" width="11" height="13" as="geometry">
            <mxRectangle width="11" height="13" as="alternateBounds" />
          </mxGeometry>
        </mxCell>
        <mxCell id="MjW0_bDNU7ffV1WiJ_FF-254" style="shape=partialRectangle;html=1;whiteSpace=wrap;connectable=0;strokeColor=#f18e00;overflow=hidden;fillColor=#F1B880;top=0;left=0;bottom=0;right=0;pointerEvents=1;fontSize=16;" parent="MjW0_bDNU7ffV1WiJ_FF-60" vertex="1">
          <mxGeometry x="162" width="13" height="13" as="geometry">
            <mxRectangle width="13" height="13" as="alternateBounds" />
          </mxGeometry>
        </mxCell>
        <mxCell id="MjW0_bDNU7ffV1WiJ_FF-270" style="shape=partialRectangle;html=1;whiteSpace=wrap;connectable=0;strokeColor=inherit;overflow=hidden;fillColor=none;top=0;left=0;bottom=0;right=0;pointerEvents=1;fontSize=16;" parent="MjW0_bDNU7ffV1WiJ_FF-60" vertex="1">
          <mxGeometry x="175" width="12" height="13" as="geometry">
            <mxRectangle width="12" height="13" as="alternateBounds" />
          </mxGeometry>
        </mxCell>
        <mxCell id="MjW0_bDNU7ffV1WiJ_FF-286" style="shape=partialRectangle;html=1;whiteSpace=wrap;connectable=0;strokeColor=inherit;overflow=hidden;fillColor=none;top=0;left=0;bottom=0;right=0;pointerEvents=1;fontSize=16;" parent="MjW0_bDNU7ffV1WiJ_FF-60" vertex="1">
          <mxGeometry x="187" width="13" height="13" as="geometry">
            <mxRectangle width="13" height="13" as="alternateBounds" />
          </mxGeometry>
        </mxCell>
        <mxCell id="MjW0_bDNU7ffV1WiJ_FF-64" style="shape=tableRow;horizontal=0;startSize=0;swimlaneHead=0;swimlaneBody=0;strokeColor=inherit;top=0;left=0;bottom=0;right=0;collapsible=0;dropTarget=0;fillColor=none;points=[[0,0.5],[1,0.5]];portConstraint=eastwest;fontSize=16;" parent="MjW0_bDNU7ffV1WiJ_FF-19" vertex="1">
          <mxGeometry y="138" width="200" height="12" as="geometry" />
        </mxCell>
        <mxCell id="MjW0_bDNU7ffV1WiJ_FF-65" style="shape=partialRectangle;html=1;whiteSpace=wrap;connectable=0;strokeColor=inherit;overflow=hidden;fillColor=none;top=0;left=0;bottom=0;right=0;pointerEvents=1;fontSize=16;" parent="MjW0_bDNU7ffV1WiJ_FF-64" vertex="1">
          <mxGeometry width="13" height="12" as="geometry">
            <mxRectangle width="13" height="12" as="alternateBounds" />
          </mxGeometry>
        </mxCell>
        <mxCell id="MjW0_bDNU7ffV1WiJ_FF-66" style="shape=partialRectangle;html=1;whiteSpace=wrap;connectable=0;strokeColor=inherit;overflow=hidden;fillColor=none;top=0;left=0;bottom=0;right=0;pointerEvents=1;fontSize=16;" parent="MjW0_bDNU7ffV1WiJ_FF-64" vertex="1">
          <mxGeometry x="13" width="12" height="12" as="geometry">
            <mxRectangle width="12" height="12" as="alternateBounds" />
          </mxGeometry>
        </mxCell>
        <mxCell id="MjW0_bDNU7ffV1WiJ_FF-67" style="shape=partialRectangle;html=1;whiteSpace=wrap;connectable=0;strokeColor=inherit;overflow=hidden;fillColor=none;top=0;left=0;bottom=0;right=0;pointerEvents=1;fontSize=16;" parent="MjW0_bDNU7ffV1WiJ_FF-64" vertex="1">
          <mxGeometry x="25" width="13" height="12" as="geometry">
            <mxRectangle width="13" height="12" as="alternateBounds" />
          </mxGeometry>
        </mxCell>
        <mxCell id="MjW0_bDNU7ffV1WiJ_FF-95" style="shape=partialRectangle;html=1;whiteSpace=wrap;connectable=0;strokeColor=inherit;overflow=hidden;fillColor=none;top=0;left=0;bottom=0;right=0;pointerEvents=1;fontSize=16;" parent="MjW0_bDNU7ffV1WiJ_FF-64" vertex="1">
          <mxGeometry x="38" width="13" height="12" as="geometry">
            <mxRectangle width="13" height="12" as="alternateBounds" />
          </mxGeometry>
        </mxCell>
        <mxCell id="MjW0_bDNU7ffV1WiJ_FF-111" style="shape=partialRectangle;html=1;whiteSpace=wrap;connectable=0;strokeColor=inherit;overflow=hidden;fillColor=none;top=0;left=0;bottom=0;right=0;pointerEvents=1;fontSize=16;" parent="MjW0_bDNU7ffV1WiJ_FF-64" vertex="1">
          <mxGeometry x="51" width="11" height="12" as="geometry">
            <mxRectangle width="11" height="12" as="alternateBounds" />
          </mxGeometry>
        </mxCell>
        <mxCell id="MjW0_bDNU7ffV1WiJ_FF-127" style="shape=partialRectangle;html=1;whiteSpace=wrap;connectable=0;strokeColor=inherit;overflow=hidden;fillColor=none;top=0;left=0;bottom=0;right=0;pointerEvents=1;fontSize=16;" parent="MjW0_bDNU7ffV1WiJ_FF-64" vertex="1">
          <mxGeometry x="62" width="13" height="12" as="geometry">
            <mxRectangle width="13" height="12" as="alternateBounds" />
          </mxGeometry>
        </mxCell>
        <mxCell id="MjW0_bDNU7ffV1WiJ_FF-143" style="shape=partialRectangle;html=1;whiteSpace=wrap;connectable=0;strokeColor=inherit;overflow=hidden;fillColor=none;top=0;left=0;bottom=0;right=0;pointerEvents=1;fontSize=16;" parent="MjW0_bDNU7ffV1WiJ_FF-64" vertex="1">
          <mxGeometry x="75" width="12" height="12" as="geometry">
            <mxRectangle width="12" height="12" as="alternateBounds" />
          </mxGeometry>
        </mxCell>
        <mxCell id="MjW0_bDNU7ffV1WiJ_FF-159" style="shape=partialRectangle;html=1;whiteSpace=wrap;connectable=0;strokeColor=inherit;overflow=hidden;fillColor=none;top=0;left=0;bottom=0;right=0;pointerEvents=1;fontSize=16;" parent="MjW0_bDNU7ffV1WiJ_FF-64" vertex="1">
          <mxGeometry x="87" width="13" height="12" as="geometry">
            <mxRectangle width="13" height="12" as="alternateBounds" />
          </mxGeometry>
        </mxCell>
        <mxCell id="MjW0_bDNU7ffV1WiJ_FF-175" style="shape=partialRectangle;html=1;whiteSpace=wrap;connectable=0;strokeColor=#f18e00;overflow=hidden;fillColor=#F1B880;top=0;left=0;bottom=0;right=0;pointerEvents=1;fontSize=16;" parent="MjW0_bDNU7ffV1WiJ_FF-64" vertex="1">
          <mxGeometry x="100" width="13" height="12" as="geometry">
            <mxRectangle width="13" height="12" as="alternateBounds" />
          </mxGeometry>
        </mxCell>
        <mxCell id="MjW0_bDNU7ffV1WiJ_FF-191" style="shape=partialRectangle;html=1;whiteSpace=wrap;connectable=0;strokeColor=#f18e00;overflow=hidden;fillColor=#F1B880;top=0;left=0;bottom=0;right=0;pointerEvents=1;fontSize=16;" parent="MjW0_bDNU7ffV1WiJ_FF-64" vertex="1">
          <mxGeometry x="113" width="12" height="12" as="geometry">
            <mxRectangle width="12" height="12" as="alternateBounds" />
          </mxGeometry>
        </mxCell>
        <mxCell id="MjW0_bDNU7ffV1WiJ_FF-207" style="shape=partialRectangle;html=1;whiteSpace=wrap;connectable=0;strokeColor=#f18e00;overflow=hidden;fillColor=#F1B880;top=0;left=0;bottom=0;right=0;pointerEvents=1;fontSize=16;" parent="MjW0_bDNU7ffV1WiJ_FF-64" vertex="1">
          <mxGeometry x="125" width="13" height="12" as="geometry">
            <mxRectangle width="13" height="12" as="alternateBounds" />
          </mxGeometry>
        </mxCell>
        <mxCell id="MjW0_bDNU7ffV1WiJ_FF-223" style="shape=partialRectangle;html=1;whiteSpace=wrap;connectable=0;strokeColor=#f18e00;overflow=hidden;fillColor=#F1B880;top=0;left=0;bottom=0;right=0;pointerEvents=1;fontSize=16;" parent="MjW0_bDNU7ffV1WiJ_FF-64" vertex="1">
          <mxGeometry x="138" width="13" height="12" as="geometry">
            <mxRectangle width="13" height="12" as="alternateBounds" />
          </mxGeometry>
        </mxCell>
        <mxCell id="MjW0_bDNU7ffV1WiJ_FF-239" style="shape=partialRectangle;html=1;whiteSpace=wrap;connectable=0;strokeColor=#f18e00;overflow=hidden;fillColor=#F1B880;top=0;left=0;bottom=0;right=0;pointerEvents=1;fontSize=16;" parent="MjW0_bDNU7ffV1WiJ_FF-64" vertex="1">
          <mxGeometry x="151" width="11" height="12" as="geometry">
            <mxRectangle width="11" height="12" as="alternateBounds" />
          </mxGeometry>
        </mxCell>
        <mxCell id="MjW0_bDNU7ffV1WiJ_FF-255" style="shape=partialRectangle;html=1;whiteSpace=wrap;connectable=0;strokeColor=inherit;overflow=hidden;fillColor=none;top=0;left=0;bottom=0;right=0;pointerEvents=1;fontSize=16;" parent="MjW0_bDNU7ffV1WiJ_FF-64" vertex="1">
          <mxGeometry x="162" width="13" height="12" as="geometry">
            <mxRectangle width="13" height="12" as="alternateBounds" />
          </mxGeometry>
        </mxCell>
        <mxCell id="MjW0_bDNU7ffV1WiJ_FF-271" style="shape=partialRectangle;html=1;whiteSpace=wrap;connectable=0;strokeColor=inherit;overflow=hidden;fillColor=none;top=0;left=0;bottom=0;right=0;pointerEvents=1;fontSize=16;" parent="MjW0_bDNU7ffV1WiJ_FF-64" vertex="1">
          <mxGeometry x="175" width="12" height="12" as="geometry">
            <mxRectangle width="12" height="12" as="alternateBounds" />
          </mxGeometry>
        </mxCell>
        <mxCell id="MjW0_bDNU7ffV1WiJ_FF-287" style="shape=partialRectangle;html=1;whiteSpace=wrap;connectable=0;strokeColor=inherit;overflow=hidden;fillColor=none;top=0;left=0;bottom=0;right=0;pointerEvents=1;fontSize=16;" parent="MjW0_bDNU7ffV1WiJ_FF-64" vertex="1">
          <mxGeometry x="187" width="13" height="12" as="geometry">
            <mxRectangle width="13" height="12" as="alternateBounds" />
          </mxGeometry>
        </mxCell>
        <mxCell id="MjW0_bDNU7ffV1WiJ_FF-68" style="shape=tableRow;horizontal=0;startSize=0;swimlaneHead=0;swimlaneBody=0;strokeColor=inherit;top=0;left=0;bottom=0;right=0;collapsible=0;dropTarget=0;fillColor=none;points=[[0,0.5],[1,0.5]];portConstraint=eastwest;fontSize=16;" parent="MjW0_bDNU7ffV1WiJ_FF-19" vertex="1">
          <mxGeometry y="150" width="200" height="13" as="geometry" />
        </mxCell>
        <mxCell id="MjW0_bDNU7ffV1WiJ_FF-69" style="shape=partialRectangle;html=1;whiteSpace=wrap;connectable=0;strokeColor=inherit;overflow=hidden;fillColor=none;top=0;left=0;bottom=0;right=0;pointerEvents=1;fontSize=16;" parent="MjW0_bDNU7ffV1WiJ_FF-68" vertex="1">
          <mxGeometry width="13" height="13" as="geometry">
            <mxRectangle width="13" height="13" as="alternateBounds" />
          </mxGeometry>
        </mxCell>
        <mxCell id="MjW0_bDNU7ffV1WiJ_FF-70" style="shape=partialRectangle;html=1;whiteSpace=wrap;connectable=0;strokeColor=inherit;overflow=hidden;fillColor=none;top=0;left=0;bottom=0;right=0;pointerEvents=1;fontSize=16;" parent="MjW0_bDNU7ffV1WiJ_FF-68" vertex="1">
          <mxGeometry x="13" width="12" height="13" as="geometry">
            <mxRectangle width="12" height="13" as="alternateBounds" />
          </mxGeometry>
        </mxCell>
        <mxCell id="MjW0_bDNU7ffV1WiJ_FF-71" style="shape=partialRectangle;html=1;whiteSpace=wrap;connectable=0;strokeColor=inherit;overflow=hidden;fillColor=none;top=0;left=0;bottom=0;right=0;pointerEvents=1;fontSize=16;" parent="MjW0_bDNU7ffV1WiJ_FF-68" vertex="1">
          <mxGeometry x="25" width="13" height="13" as="geometry">
            <mxRectangle width="13" height="13" as="alternateBounds" />
          </mxGeometry>
        </mxCell>
        <mxCell id="MjW0_bDNU7ffV1WiJ_FF-96" style="shape=partialRectangle;html=1;whiteSpace=wrap;connectable=0;strokeColor=inherit;overflow=hidden;fillColor=none;top=0;left=0;bottom=0;right=0;pointerEvents=1;fontSize=16;" parent="MjW0_bDNU7ffV1WiJ_FF-68" vertex="1">
          <mxGeometry x="38" width="13" height="13" as="geometry">
            <mxRectangle width="13" height="13" as="alternateBounds" />
          </mxGeometry>
        </mxCell>
        <mxCell id="MjW0_bDNU7ffV1WiJ_FF-112" style="shape=partialRectangle;html=1;whiteSpace=wrap;connectable=0;strokeColor=inherit;overflow=hidden;fillColor=none;top=0;left=0;bottom=0;right=0;pointerEvents=1;fontSize=16;" parent="MjW0_bDNU7ffV1WiJ_FF-68" vertex="1">
          <mxGeometry x="51" width="11" height="13" as="geometry">
            <mxRectangle width="11" height="13" as="alternateBounds" />
          </mxGeometry>
        </mxCell>
        <mxCell id="MjW0_bDNU7ffV1WiJ_FF-128" style="shape=partialRectangle;html=1;whiteSpace=wrap;connectable=0;strokeColor=inherit;overflow=hidden;fillColor=none;top=0;left=0;bottom=0;right=0;pointerEvents=1;fontSize=16;" parent="MjW0_bDNU7ffV1WiJ_FF-68" vertex="1">
          <mxGeometry x="62" width="13" height="13" as="geometry">
            <mxRectangle width="13" height="13" as="alternateBounds" />
          </mxGeometry>
        </mxCell>
        <mxCell id="MjW0_bDNU7ffV1WiJ_FF-144" style="shape=partialRectangle;html=1;whiteSpace=wrap;connectable=0;strokeColor=inherit;overflow=hidden;fillColor=none;top=0;left=0;bottom=0;right=0;pointerEvents=1;fontSize=16;" parent="MjW0_bDNU7ffV1WiJ_FF-68" vertex="1">
          <mxGeometry x="75" width="12" height="13" as="geometry">
            <mxRectangle width="12" height="13" as="alternateBounds" />
          </mxGeometry>
        </mxCell>
        <mxCell id="MjW0_bDNU7ffV1WiJ_FF-160" style="shape=partialRectangle;html=1;whiteSpace=wrap;connectable=0;strokeColor=inherit;overflow=hidden;fillColor=none;top=0;left=0;bottom=0;right=0;pointerEvents=1;fontSize=16;" parent="MjW0_bDNU7ffV1WiJ_FF-68" vertex="1">
          <mxGeometry x="87" width="13" height="13" as="geometry">
            <mxRectangle width="13" height="13" as="alternateBounds" />
          </mxGeometry>
        </mxCell>
        <mxCell id="MjW0_bDNU7ffV1WiJ_FF-176" style="shape=partialRectangle;html=1;whiteSpace=wrap;connectable=0;strokeColor=#f18e00;overflow=hidden;fillColor=#F1B880;top=0;left=0;bottom=0;right=0;pointerEvents=1;fontSize=16;" parent="MjW0_bDNU7ffV1WiJ_FF-68" vertex="1">
          <mxGeometry x="100" width="13" height="13" as="geometry">
            <mxRectangle width="13" height="13" as="alternateBounds" />
          </mxGeometry>
        </mxCell>
        <mxCell id="MjW0_bDNU7ffV1WiJ_FF-192" style="shape=partialRectangle;html=1;whiteSpace=wrap;connectable=0;strokeColor=#f18e00;overflow=hidden;fillColor=#F1B880;top=0;left=0;bottom=0;right=0;pointerEvents=1;fontSize=16;" parent="MjW0_bDNU7ffV1WiJ_FF-68" vertex="1">
          <mxGeometry x="113" width="12" height="13" as="geometry">
            <mxRectangle width="12" height="13" as="alternateBounds" />
          </mxGeometry>
        </mxCell>
        <mxCell id="MjW0_bDNU7ffV1WiJ_FF-208" style="shape=partialRectangle;html=1;whiteSpace=wrap;connectable=0;strokeColor=#f18e00;overflow=hidden;fillColor=#F1B880;top=0;left=0;bottom=0;right=0;pointerEvents=1;fontSize=16;" parent="MjW0_bDNU7ffV1WiJ_FF-68" vertex="1">
          <mxGeometry x="125" width="13" height="13" as="geometry">
            <mxRectangle width="13" height="13" as="alternateBounds" />
          </mxGeometry>
        </mxCell>
        <mxCell id="MjW0_bDNU7ffV1WiJ_FF-224" style="shape=partialRectangle;html=1;whiteSpace=wrap;connectable=0;strokeColor=#f18e00;overflow=hidden;fillColor=#F1B880;top=0;left=0;bottom=0;right=0;pointerEvents=1;fontSize=16;" parent="MjW0_bDNU7ffV1WiJ_FF-68" vertex="1">
          <mxGeometry x="138" width="13" height="13" as="geometry">
            <mxRectangle width="13" height="13" as="alternateBounds" />
          </mxGeometry>
        </mxCell>
        <mxCell id="MjW0_bDNU7ffV1WiJ_FF-240" style="shape=partialRectangle;html=1;whiteSpace=wrap;connectable=0;strokeColor=inherit;overflow=hidden;fillColor=none;top=0;left=0;bottom=0;right=0;pointerEvents=1;fontSize=16;" parent="MjW0_bDNU7ffV1WiJ_FF-68" vertex="1">
          <mxGeometry x="151" width="11" height="13" as="geometry">
            <mxRectangle width="11" height="13" as="alternateBounds" />
          </mxGeometry>
        </mxCell>
        <mxCell id="MjW0_bDNU7ffV1WiJ_FF-256" style="shape=partialRectangle;html=1;whiteSpace=wrap;connectable=0;strokeColor=inherit;overflow=hidden;fillColor=none;top=0;left=0;bottom=0;right=0;pointerEvents=1;fontSize=16;" parent="MjW0_bDNU7ffV1WiJ_FF-68" vertex="1">
          <mxGeometry x="162" width="13" height="13" as="geometry">
            <mxRectangle width="13" height="13" as="alternateBounds" />
          </mxGeometry>
        </mxCell>
        <mxCell id="MjW0_bDNU7ffV1WiJ_FF-272" style="shape=partialRectangle;html=1;whiteSpace=wrap;connectable=0;strokeColor=inherit;overflow=hidden;fillColor=none;top=0;left=0;bottom=0;right=0;pointerEvents=1;fontSize=16;" parent="MjW0_bDNU7ffV1WiJ_FF-68" vertex="1">
          <mxGeometry x="175" width="12" height="13" as="geometry">
            <mxRectangle width="12" height="13" as="alternateBounds" />
          </mxGeometry>
        </mxCell>
        <mxCell id="MjW0_bDNU7ffV1WiJ_FF-288" style="shape=partialRectangle;html=1;whiteSpace=wrap;connectable=0;strokeColor=inherit;overflow=hidden;fillColor=none;top=0;left=0;bottom=0;right=0;pointerEvents=1;fontSize=16;" parent="MjW0_bDNU7ffV1WiJ_FF-68" vertex="1">
          <mxGeometry x="187" width="13" height="13" as="geometry">
            <mxRectangle width="13" height="13" as="alternateBounds" />
          </mxGeometry>
        </mxCell>
        <mxCell id="MjW0_bDNU7ffV1WiJ_FF-72" style="shape=tableRow;horizontal=0;startSize=0;swimlaneHead=0;swimlaneBody=0;strokeColor=inherit;top=0;left=0;bottom=0;right=0;collapsible=0;dropTarget=0;fillColor=none;points=[[0,0.5],[1,0.5]];portConstraint=eastwest;fontSize=16;" parent="MjW0_bDNU7ffV1WiJ_FF-19" vertex="1">
          <mxGeometry y="163" width="200" height="12" as="geometry" />
        </mxCell>
        <mxCell id="MjW0_bDNU7ffV1WiJ_FF-73" style="shape=partialRectangle;html=1;whiteSpace=wrap;connectable=0;strokeColor=inherit;overflow=hidden;fillColor=none;top=0;left=0;bottom=0;right=0;pointerEvents=1;fontSize=16;" parent="MjW0_bDNU7ffV1WiJ_FF-72" vertex="1">
          <mxGeometry width="13" height="12" as="geometry">
            <mxRectangle width="13" height="12" as="alternateBounds" />
          </mxGeometry>
        </mxCell>
        <mxCell id="MjW0_bDNU7ffV1WiJ_FF-74" style="shape=partialRectangle;html=1;whiteSpace=wrap;connectable=0;strokeColor=inherit;overflow=hidden;fillColor=none;top=0;left=0;bottom=0;right=0;pointerEvents=1;fontSize=16;" parent="MjW0_bDNU7ffV1WiJ_FF-72" vertex="1">
          <mxGeometry x="13" width="12" height="12" as="geometry">
            <mxRectangle width="12" height="12" as="alternateBounds" />
          </mxGeometry>
        </mxCell>
        <mxCell id="MjW0_bDNU7ffV1WiJ_FF-75" style="shape=partialRectangle;html=1;whiteSpace=wrap;connectable=0;strokeColor=inherit;overflow=hidden;fillColor=none;top=0;left=0;bottom=0;right=0;pointerEvents=1;fontSize=16;" parent="MjW0_bDNU7ffV1WiJ_FF-72" vertex="1">
          <mxGeometry x="25" width="13" height="12" as="geometry">
            <mxRectangle width="13" height="12" as="alternateBounds" />
          </mxGeometry>
        </mxCell>
        <mxCell id="MjW0_bDNU7ffV1WiJ_FF-97" style="shape=partialRectangle;html=1;whiteSpace=wrap;connectable=0;strokeColor=inherit;overflow=hidden;fillColor=none;top=0;left=0;bottom=0;right=0;pointerEvents=1;fontSize=16;" parent="MjW0_bDNU7ffV1WiJ_FF-72" vertex="1">
          <mxGeometry x="38" width="13" height="12" as="geometry">
            <mxRectangle width="13" height="12" as="alternateBounds" />
          </mxGeometry>
        </mxCell>
        <mxCell id="MjW0_bDNU7ffV1WiJ_FF-113" style="shape=partialRectangle;html=1;whiteSpace=wrap;connectable=0;strokeColor=inherit;overflow=hidden;fillColor=none;top=0;left=0;bottom=0;right=0;pointerEvents=1;fontSize=16;" parent="MjW0_bDNU7ffV1WiJ_FF-72" vertex="1">
          <mxGeometry x="51" width="11" height="12" as="geometry">
            <mxRectangle width="11" height="12" as="alternateBounds" />
          </mxGeometry>
        </mxCell>
        <mxCell id="MjW0_bDNU7ffV1WiJ_FF-129" style="shape=partialRectangle;html=1;whiteSpace=wrap;connectable=0;strokeColor=inherit;overflow=hidden;fillColor=none;top=0;left=0;bottom=0;right=0;pointerEvents=1;fontSize=16;" parent="MjW0_bDNU7ffV1WiJ_FF-72" vertex="1">
          <mxGeometry x="62" width="13" height="12" as="geometry">
            <mxRectangle width="13" height="12" as="alternateBounds" />
          </mxGeometry>
        </mxCell>
        <mxCell id="MjW0_bDNU7ffV1WiJ_FF-145" style="shape=partialRectangle;html=1;whiteSpace=wrap;connectable=0;strokeColor=inherit;overflow=hidden;fillColor=none;top=0;left=0;bottom=0;right=0;pointerEvents=1;fontSize=16;" parent="MjW0_bDNU7ffV1WiJ_FF-72" vertex="1">
          <mxGeometry x="75" width="12" height="12" as="geometry">
            <mxRectangle width="12" height="12" as="alternateBounds" />
          </mxGeometry>
        </mxCell>
        <mxCell id="MjW0_bDNU7ffV1WiJ_FF-161" style="shape=partialRectangle;html=1;whiteSpace=wrap;connectable=0;strokeColor=inherit;overflow=hidden;fillColor=none;top=0;left=0;bottom=0;right=0;pointerEvents=1;fontSize=16;" parent="MjW0_bDNU7ffV1WiJ_FF-72" vertex="1">
          <mxGeometry x="87" width="13" height="12" as="geometry">
            <mxRectangle width="13" height="12" as="alternateBounds" />
          </mxGeometry>
        </mxCell>
        <mxCell id="MjW0_bDNU7ffV1WiJ_FF-177" style="shape=partialRectangle;html=1;whiteSpace=wrap;connectable=0;strokeColor=#f18e00;overflow=hidden;fillColor=#F1B880;top=0;left=0;bottom=0;right=0;pointerEvents=1;fontSize=16;" parent="MjW0_bDNU7ffV1WiJ_FF-72" vertex="1">
          <mxGeometry x="100" width="13" height="12" as="geometry">
            <mxRectangle width="13" height="12" as="alternateBounds" />
          </mxGeometry>
        </mxCell>
        <mxCell id="MjW0_bDNU7ffV1WiJ_FF-193" style="shape=partialRectangle;html=1;whiteSpace=wrap;connectable=0;strokeColor=#f18e00;overflow=hidden;fillColor=#F1B880;top=0;left=0;bottom=0;right=0;pointerEvents=1;fontSize=16;" parent="MjW0_bDNU7ffV1WiJ_FF-72" vertex="1">
          <mxGeometry x="113" width="12" height="12" as="geometry">
            <mxRectangle width="12" height="12" as="alternateBounds" />
          </mxGeometry>
        </mxCell>
        <mxCell id="MjW0_bDNU7ffV1WiJ_FF-209" style="shape=partialRectangle;html=1;whiteSpace=wrap;connectable=0;strokeColor=#f18e00;overflow=hidden;fillColor=#F1B880;top=0;left=0;bottom=0;right=0;pointerEvents=1;fontSize=16;" parent="MjW0_bDNU7ffV1WiJ_FF-72" vertex="1">
          <mxGeometry x="125" width="13" height="12" as="geometry">
            <mxRectangle width="13" height="12" as="alternateBounds" />
          </mxGeometry>
        </mxCell>
        <mxCell id="MjW0_bDNU7ffV1WiJ_FF-225" style="shape=partialRectangle;html=1;whiteSpace=wrap;connectable=0;strokeColor=inherit;overflow=hidden;fillColor=none;top=0;left=0;bottom=0;right=0;pointerEvents=1;fontSize=16;" parent="MjW0_bDNU7ffV1WiJ_FF-72" vertex="1">
          <mxGeometry x="138" width="13" height="12" as="geometry">
            <mxRectangle width="13" height="12" as="alternateBounds" />
          </mxGeometry>
        </mxCell>
        <mxCell id="MjW0_bDNU7ffV1WiJ_FF-241" style="shape=partialRectangle;html=1;whiteSpace=wrap;connectable=0;strokeColor=inherit;overflow=hidden;fillColor=none;top=0;left=0;bottom=0;right=0;pointerEvents=1;fontSize=16;" parent="MjW0_bDNU7ffV1WiJ_FF-72" vertex="1">
          <mxGeometry x="151" width="11" height="12" as="geometry">
            <mxRectangle width="11" height="12" as="alternateBounds" />
          </mxGeometry>
        </mxCell>
        <mxCell id="MjW0_bDNU7ffV1WiJ_FF-257" style="shape=partialRectangle;html=1;whiteSpace=wrap;connectable=0;strokeColor=inherit;overflow=hidden;fillColor=none;top=0;left=0;bottom=0;right=0;pointerEvents=1;fontSize=16;" parent="MjW0_bDNU7ffV1WiJ_FF-72" vertex="1">
          <mxGeometry x="162" width="13" height="12" as="geometry">
            <mxRectangle width="13" height="12" as="alternateBounds" />
          </mxGeometry>
        </mxCell>
        <mxCell id="MjW0_bDNU7ffV1WiJ_FF-273" style="shape=partialRectangle;html=1;whiteSpace=wrap;connectable=0;strokeColor=inherit;overflow=hidden;fillColor=none;top=0;left=0;bottom=0;right=0;pointerEvents=1;fontSize=16;" parent="MjW0_bDNU7ffV1WiJ_FF-72" vertex="1">
          <mxGeometry x="175" width="12" height="12" as="geometry">
            <mxRectangle width="12" height="12" as="alternateBounds" />
          </mxGeometry>
        </mxCell>
        <mxCell id="MjW0_bDNU7ffV1WiJ_FF-289" style="shape=partialRectangle;html=1;whiteSpace=wrap;connectable=0;strokeColor=inherit;overflow=hidden;fillColor=none;top=0;left=0;bottom=0;right=0;pointerEvents=1;fontSize=16;" parent="MjW0_bDNU7ffV1WiJ_FF-72" vertex="1">
          <mxGeometry x="187" width="13" height="12" as="geometry">
            <mxRectangle width="13" height="12" as="alternateBounds" />
          </mxGeometry>
        </mxCell>
        <mxCell id="MjW0_bDNU7ffV1WiJ_FF-76" style="shape=tableRow;horizontal=0;startSize=0;swimlaneHead=0;swimlaneBody=0;strokeColor=inherit;top=0;left=0;bottom=0;right=0;collapsible=0;dropTarget=0;fillColor=none;points=[[0,0.5],[1,0.5]];portConstraint=eastwest;fontSize=16;" parent="MjW0_bDNU7ffV1WiJ_FF-19" vertex="1">
          <mxGeometry y="175" width="200" height="13" as="geometry" />
        </mxCell>
        <mxCell id="MjW0_bDNU7ffV1WiJ_FF-77" style="shape=partialRectangle;html=1;whiteSpace=wrap;connectable=0;strokeColor=inherit;overflow=hidden;fillColor=none;top=0;left=0;bottom=0;right=0;pointerEvents=1;fontSize=16;" parent="MjW0_bDNU7ffV1WiJ_FF-76" vertex="1">
          <mxGeometry width="13" height="13" as="geometry">
            <mxRectangle width="13" height="13" as="alternateBounds" />
          </mxGeometry>
        </mxCell>
        <mxCell id="MjW0_bDNU7ffV1WiJ_FF-78" style="shape=partialRectangle;html=1;whiteSpace=wrap;connectable=0;strokeColor=inherit;overflow=hidden;fillColor=none;top=0;left=0;bottom=0;right=0;pointerEvents=1;fontSize=16;" parent="MjW0_bDNU7ffV1WiJ_FF-76" vertex="1">
          <mxGeometry x="13" width="12" height="13" as="geometry">
            <mxRectangle width="12" height="13" as="alternateBounds" />
          </mxGeometry>
        </mxCell>
        <mxCell id="MjW0_bDNU7ffV1WiJ_FF-79" style="shape=partialRectangle;html=1;whiteSpace=wrap;connectable=0;strokeColor=inherit;overflow=hidden;fillColor=none;top=0;left=0;bottom=0;right=0;pointerEvents=1;fontSize=16;" parent="MjW0_bDNU7ffV1WiJ_FF-76" vertex="1">
          <mxGeometry x="25" width="13" height="13" as="geometry">
            <mxRectangle width="13" height="13" as="alternateBounds" />
          </mxGeometry>
        </mxCell>
        <mxCell id="MjW0_bDNU7ffV1WiJ_FF-98" style="shape=partialRectangle;html=1;whiteSpace=wrap;connectable=0;strokeColor=inherit;overflow=hidden;fillColor=none;top=0;left=0;bottom=0;right=0;pointerEvents=1;fontSize=16;" parent="MjW0_bDNU7ffV1WiJ_FF-76" vertex="1">
          <mxGeometry x="38" width="13" height="13" as="geometry">
            <mxRectangle width="13" height="13" as="alternateBounds" />
          </mxGeometry>
        </mxCell>
        <mxCell id="MjW0_bDNU7ffV1WiJ_FF-114" style="shape=partialRectangle;html=1;whiteSpace=wrap;connectable=0;strokeColor=inherit;overflow=hidden;fillColor=none;top=0;left=0;bottom=0;right=0;pointerEvents=1;fontSize=16;" parent="MjW0_bDNU7ffV1WiJ_FF-76" vertex="1">
          <mxGeometry x="51" width="11" height="13" as="geometry">
            <mxRectangle width="11" height="13" as="alternateBounds" />
          </mxGeometry>
        </mxCell>
        <mxCell id="MjW0_bDNU7ffV1WiJ_FF-130" style="shape=partialRectangle;html=1;whiteSpace=wrap;connectable=0;strokeColor=inherit;overflow=hidden;fillColor=none;top=0;left=0;bottom=0;right=0;pointerEvents=1;fontSize=16;" parent="MjW0_bDNU7ffV1WiJ_FF-76" vertex="1">
          <mxGeometry x="62" width="13" height="13" as="geometry">
            <mxRectangle width="13" height="13" as="alternateBounds" />
          </mxGeometry>
        </mxCell>
        <mxCell id="MjW0_bDNU7ffV1WiJ_FF-146" style="shape=partialRectangle;html=1;whiteSpace=wrap;connectable=0;strokeColor=inherit;overflow=hidden;fillColor=none;top=0;left=0;bottom=0;right=0;pointerEvents=1;fontSize=16;" parent="MjW0_bDNU7ffV1WiJ_FF-76" vertex="1">
          <mxGeometry x="75" width="12" height="13" as="geometry">
            <mxRectangle width="12" height="13" as="alternateBounds" />
          </mxGeometry>
        </mxCell>
        <mxCell id="MjW0_bDNU7ffV1WiJ_FF-162" style="shape=partialRectangle;html=1;whiteSpace=wrap;connectable=0;strokeColor=inherit;overflow=hidden;fillColor=none;top=0;left=0;bottom=0;right=0;pointerEvents=1;fontSize=16;" parent="MjW0_bDNU7ffV1WiJ_FF-76" vertex="1">
          <mxGeometry x="87" width="13" height="13" as="geometry">
            <mxRectangle width="13" height="13" as="alternateBounds" />
          </mxGeometry>
        </mxCell>
        <mxCell id="MjW0_bDNU7ffV1WiJ_FF-178" style="shape=partialRectangle;html=1;whiteSpace=wrap;connectable=0;strokeColor=inherit;overflow=hidden;fillColor=none;top=0;left=0;bottom=0;right=0;pointerEvents=1;fontSize=16;" parent="MjW0_bDNU7ffV1WiJ_FF-76" vertex="1">
          <mxGeometry x="100" width="13" height="13" as="geometry">
            <mxRectangle width="13" height="13" as="alternateBounds" />
          </mxGeometry>
        </mxCell>
        <mxCell id="MjW0_bDNU7ffV1WiJ_FF-194" style="shape=partialRectangle;html=1;whiteSpace=wrap;connectable=0;strokeColor=inherit;overflow=hidden;fillColor=none;top=0;left=0;bottom=0;right=0;pointerEvents=1;fontSize=16;" parent="MjW0_bDNU7ffV1WiJ_FF-76" vertex="1">
          <mxGeometry x="113" width="12" height="13" as="geometry">
            <mxRectangle width="12" height="13" as="alternateBounds" />
          </mxGeometry>
        </mxCell>
        <mxCell id="MjW0_bDNU7ffV1WiJ_FF-210" style="shape=partialRectangle;html=1;whiteSpace=wrap;connectable=0;strokeColor=inherit;overflow=hidden;fillColor=none;top=0;left=0;bottom=0;right=0;pointerEvents=1;fontSize=16;" parent="MjW0_bDNU7ffV1WiJ_FF-76" vertex="1">
          <mxGeometry x="125" width="13" height="13" as="geometry">
            <mxRectangle width="13" height="13" as="alternateBounds" />
          </mxGeometry>
        </mxCell>
        <mxCell id="MjW0_bDNU7ffV1WiJ_FF-226" style="shape=partialRectangle;html=1;whiteSpace=wrap;connectable=0;strokeColor=inherit;overflow=hidden;fillColor=none;top=0;left=0;bottom=0;right=0;pointerEvents=1;fontSize=16;" parent="MjW0_bDNU7ffV1WiJ_FF-76" vertex="1">
          <mxGeometry x="138" width="13" height="13" as="geometry">
            <mxRectangle width="13" height="13" as="alternateBounds" />
          </mxGeometry>
        </mxCell>
        <mxCell id="MjW0_bDNU7ffV1WiJ_FF-242" style="shape=partialRectangle;html=1;whiteSpace=wrap;connectable=0;strokeColor=inherit;overflow=hidden;fillColor=none;top=0;left=0;bottom=0;right=0;pointerEvents=1;fontSize=16;" parent="MjW0_bDNU7ffV1WiJ_FF-76" vertex="1">
          <mxGeometry x="151" width="11" height="13" as="geometry">
            <mxRectangle width="11" height="13" as="alternateBounds" />
          </mxGeometry>
        </mxCell>
        <mxCell id="MjW0_bDNU7ffV1WiJ_FF-258" style="shape=partialRectangle;html=1;whiteSpace=wrap;connectable=0;strokeColor=inherit;overflow=hidden;fillColor=none;top=0;left=0;bottom=0;right=0;pointerEvents=1;fontSize=16;" parent="MjW0_bDNU7ffV1WiJ_FF-76" vertex="1">
          <mxGeometry x="162" width="13" height="13" as="geometry">
            <mxRectangle width="13" height="13" as="alternateBounds" />
          </mxGeometry>
        </mxCell>
        <mxCell id="MjW0_bDNU7ffV1WiJ_FF-274" style="shape=partialRectangle;html=1;whiteSpace=wrap;connectable=0;strokeColor=inherit;overflow=hidden;fillColor=none;top=0;left=0;bottom=0;right=0;pointerEvents=1;fontSize=16;" parent="MjW0_bDNU7ffV1WiJ_FF-76" vertex="1">
          <mxGeometry x="175" width="12" height="13" as="geometry">
            <mxRectangle width="12" height="13" as="alternateBounds" />
          </mxGeometry>
        </mxCell>
        <mxCell id="MjW0_bDNU7ffV1WiJ_FF-290" style="shape=partialRectangle;html=1;whiteSpace=wrap;connectable=0;strokeColor=inherit;overflow=hidden;fillColor=none;top=0;left=0;bottom=0;right=0;pointerEvents=1;fontSize=16;" parent="MjW0_bDNU7ffV1WiJ_FF-76" vertex="1">
          <mxGeometry x="187" width="13" height="13" as="geometry">
            <mxRectangle width="13" height="13" as="alternateBounds" />
          </mxGeometry>
        </mxCell>
        <mxCell id="MjW0_bDNU7ffV1WiJ_FF-80" style="shape=tableRow;horizontal=0;startSize=0;swimlaneHead=0;swimlaneBody=0;strokeColor=inherit;top=0;left=0;bottom=0;right=0;collapsible=0;dropTarget=0;fillColor=none;points=[[0,0.5],[1,0.5]];portConstraint=eastwest;fontSize=16;" parent="MjW0_bDNU7ffV1WiJ_FF-19" vertex="1">
          <mxGeometry y="188" width="200" height="12" as="geometry" />
        </mxCell>
        <mxCell id="MjW0_bDNU7ffV1WiJ_FF-81" style="shape=partialRectangle;html=1;whiteSpace=wrap;connectable=0;strokeColor=inherit;overflow=hidden;fillColor=none;top=0;left=0;bottom=0;right=0;pointerEvents=1;fontSize=16;" parent="MjW0_bDNU7ffV1WiJ_FF-80" vertex="1">
          <mxGeometry width="13" height="12" as="geometry">
            <mxRectangle width="13" height="12" as="alternateBounds" />
          </mxGeometry>
        </mxCell>
        <mxCell id="MjW0_bDNU7ffV1WiJ_FF-82" style="shape=partialRectangle;html=1;whiteSpace=wrap;connectable=0;strokeColor=inherit;overflow=hidden;fillColor=none;top=0;left=0;bottom=0;right=0;pointerEvents=1;fontSize=16;" parent="MjW0_bDNU7ffV1WiJ_FF-80" vertex="1">
          <mxGeometry x="13" width="12" height="12" as="geometry">
            <mxRectangle width="12" height="12" as="alternateBounds" />
          </mxGeometry>
        </mxCell>
        <mxCell id="MjW0_bDNU7ffV1WiJ_FF-83" style="shape=partialRectangle;html=1;whiteSpace=wrap;connectable=0;strokeColor=inherit;overflow=hidden;fillColor=none;top=0;left=0;bottom=0;right=0;pointerEvents=1;fontSize=16;" parent="MjW0_bDNU7ffV1WiJ_FF-80" vertex="1">
          <mxGeometry x="25" width="13" height="12" as="geometry">
            <mxRectangle width="13" height="12" as="alternateBounds" />
          </mxGeometry>
        </mxCell>
        <mxCell id="MjW0_bDNU7ffV1WiJ_FF-99" style="shape=partialRectangle;html=1;whiteSpace=wrap;connectable=0;strokeColor=inherit;overflow=hidden;fillColor=none;top=0;left=0;bottom=0;right=0;pointerEvents=1;fontSize=16;" parent="MjW0_bDNU7ffV1WiJ_FF-80" vertex="1">
          <mxGeometry x="38" width="13" height="12" as="geometry">
            <mxRectangle width="13" height="12" as="alternateBounds" />
          </mxGeometry>
        </mxCell>
        <mxCell id="MjW0_bDNU7ffV1WiJ_FF-115" style="shape=partialRectangle;html=1;whiteSpace=wrap;connectable=0;strokeColor=inherit;overflow=hidden;fillColor=none;top=0;left=0;bottom=0;right=0;pointerEvents=1;fontSize=16;" parent="MjW0_bDNU7ffV1WiJ_FF-80" vertex="1">
          <mxGeometry x="51" width="11" height="12" as="geometry">
            <mxRectangle width="11" height="12" as="alternateBounds" />
          </mxGeometry>
        </mxCell>
        <mxCell id="MjW0_bDNU7ffV1WiJ_FF-131" style="shape=partialRectangle;html=1;whiteSpace=wrap;connectable=0;strokeColor=inherit;overflow=hidden;fillColor=none;top=0;left=0;bottom=0;right=0;pointerEvents=1;fontSize=16;" parent="MjW0_bDNU7ffV1WiJ_FF-80" vertex="1">
          <mxGeometry x="62" width="13" height="12" as="geometry">
            <mxRectangle width="13" height="12" as="alternateBounds" />
          </mxGeometry>
        </mxCell>
        <mxCell id="MjW0_bDNU7ffV1WiJ_FF-147" style="shape=partialRectangle;html=1;whiteSpace=wrap;connectable=0;strokeColor=inherit;overflow=hidden;fillColor=none;top=0;left=0;bottom=0;right=0;pointerEvents=1;fontSize=16;" parent="MjW0_bDNU7ffV1WiJ_FF-80" vertex="1">
          <mxGeometry x="75" width="12" height="12" as="geometry">
            <mxRectangle width="12" height="12" as="alternateBounds" />
          </mxGeometry>
        </mxCell>
        <mxCell id="MjW0_bDNU7ffV1WiJ_FF-163" style="shape=partialRectangle;html=1;whiteSpace=wrap;connectable=0;strokeColor=inherit;overflow=hidden;fillColor=none;top=0;left=0;bottom=0;right=0;pointerEvents=1;fontSize=16;" parent="MjW0_bDNU7ffV1WiJ_FF-80" vertex="1">
          <mxGeometry x="87" width="13" height="12" as="geometry">
            <mxRectangle width="13" height="12" as="alternateBounds" />
          </mxGeometry>
        </mxCell>
        <mxCell id="MjW0_bDNU7ffV1WiJ_FF-179" style="shape=partialRectangle;html=1;whiteSpace=wrap;connectable=0;strokeColor=inherit;overflow=hidden;fillColor=none;top=0;left=0;bottom=0;right=0;pointerEvents=1;fontSize=16;" parent="MjW0_bDNU7ffV1WiJ_FF-80" vertex="1">
          <mxGeometry x="100" width="13" height="12" as="geometry">
            <mxRectangle width="13" height="12" as="alternateBounds" />
          </mxGeometry>
        </mxCell>
        <mxCell id="MjW0_bDNU7ffV1WiJ_FF-195" style="shape=partialRectangle;html=1;whiteSpace=wrap;connectable=0;strokeColor=inherit;overflow=hidden;fillColor=none;top=0;left=0;bottom=0;right=0;pointerEvents=1;fontSize=16;" parent="MjW0_bDNU7ffV1WiJ_FF-80" vertex="1">
          <mxGeometry x="113" width="12" height="12" as="geometry">
            <mxRectangle width="12" height="12" as="alternateBounds" />
          </mxGeometry>
        </mxCell>
        <mxCell id="MjW0_bDNU7ffV1WiJ_FF-211" style="shape=partialRectangle;html=1;whiteSpace=wrap;connectable=0;strokeColor=inherit;overflow=hidden;fillColor=none;top=0;left=0;bottom=0;right=0;pointerEvents=1;fontSize=16;" parent="MjW0_bDNU7ffV1WiJ_FF-80" vertex="1">
          <mxGeometry x="125" width="13" height="12" as="geometry">
            <mxRectangle width="13" height="12" as="alternateBounds" />
          </mxGeometry>
        </mxCell>
        <mxCell id="MjW0_bDNU7ffV1WiJ_FF-227" style="shape=partialRectangle;html=1;whiteSpace=wrap;connectable=0;strokeColor=inherit;overflow=hidden;fillColor=none;top=0;left=0;bottom=0;right=0;pointerEvents=1;fontSize=16;" parent="MjW0_bDNU7ffV1WiJ_FF-80" vertex="1">
          <mxGeometry x="138" width="13" height="12" as="geometry">
            <mxRectangle width="13" height="12" as="alternateBounds" />
          </mxGeometry>
        </mxCell>
        <mxCell id="MjW0_bDNU7ffV1WiJ_FF-243" style="shape=partialRectangle;html=1;whiteSpace=wrap;connectable=0;strokeColor=inherit;overflow=hidden;fillColor=none;top=0;left=0;bottom=0;right=0;pointerEvents=1;fontSize=16;" parent="MjW0_bDNU7ffV1WiJ_FF-80" vertex="1">
          <mxGeometry x="151" width="11" height="12" as="geometry">
            <mxRectangle width="11" height="12" as="alternateBounds" />
          </mxGeometry>
        </mxCell>
        <mxCell id="MjW0_bDNU7ffV1WiJ_FF-259" style="shape=partialRectangle;html=1;whiteSpace=wrap;connectable=0;strokeColor=inherit;overflow=hidden;fillColor=none;top=0;left=0;bottom=0;right=0;pointerEvents=1;fontSize=16;" parent="MjW0_bDNU7ffV1WiJ_FF-80" vertex="1">
          <mxGeometry x="162" width="13" height="12" as="geometry">
            <mxRectangle width="13" height="12" as="alternateBounds" />
          </mxGeometry>
        </mxCell>
        <mxCell id="MjW0_bDNU7ffV1WiJ_FF-275" style="shape=partialRectangle;html=1;whiteSpace=wrap;connectable=0;strokeColor=inherit;overflow=hidden;fillColor=none;top=0;left=0;bottom=0;right=0;pointerEvents=1;fontSize=16;" parent="MjW0_bDNU7ffV1WiJ_FF-80" vertex="1">
          <mxGeometry x="175" width="12" height="12" as="geometry">
            <mxRectangle width="12" height="12" as="alternateBounds" />
          </mxGeometry>
        </mxCell>
        <mxCell id="MjW0_bDNU7ffV1WiJ_FF-291" style="shape=partialRectangle;html=1;whiteSpace=wrap;connectable=0;strokeColor=inherit;overflow=hidden;fillColor=none;top=0;left=0;bottom=0;right=0;pointerEvents=1;fontSize=16;" parent="MjW0_bDNU7ffV1WiJ_FF-80" vertex="1">
          <mxGeometry x="187" width="13" height="12" as="geometry">
            <mxRectangle width="13" height="12" as="alternateBounds" />
          </mxGeometry>
        </mxCell>
        <mxCell id="MjW0_bDNU7ffV1WiJ_FF-10" value="" style="endArrow=classic;html=1;rounded=0;fillColor=#50A1F2;strokeColor=#004489;strokeWidth=1;" parent="1" edge="1">
          <mxGeometry width="50" height="50" relative="1" as="geometry">
            <mxPoint x="440" y="320" as="sourcePoint" />
            <mxPoint x="480" y="250" as="targetPoint" />
          </mxGeometry>
        </mxCell>
        <mxCell id="MjW0_bDNU7ffV1WiJ_FF-11" value="$$\Omega_{max}$$" style="edgeLabel;html=1;align=center;verticalAlign=middle;resizable=0;points=[];labelBackgroundColor=default;" parent="MjW0_bDNU7ffV1WiJ_FF-10" vertex="1" connectable="0">
          <mxGeometry x="0.8518" relative="1" as="geometry">
            <mxPoint x="13" y="-29" as="offset" />
          </mxGeometry>
        </mxCell>
        <mxCell id="MjW0_bDNU7ffV1WiJ_FF-12" value="" style="ellipse;whiteSpace=wrap;html=1;aspect=fixed;fillColor=none;movable=1;resizable=1;rotatable=1;deletable=1;editable=1;locked=0;connectable=1;strokeColor=#004489;strokeWidth=2;" parent="1" vertex="1">
          <mxGeometry x="360" y="240" width="160" height="160" as="geometry" />
        </mxCell>
        <mxCell id="MjW0_bDNU7ffV1WiJ_FF-3" value="" style="endArrow=classic;html=1;rounded=0;" parent="1" edge="1">
          <mxGeometry width="50" height="50" relative="1" as="geometry">
            <mxPoint x="320" y="320" as="sourcePoint" />
            <mxPoint x="560" y="320" as="targetPoint" />
          </mxGeometry>
        </mxCell>
        <mxCell id="MjW0_bDNU7ffV1WiJ_FF-4" value="$$\Omega_x$$" style="edgeLabel;html=1;align=center;verticalAlign=middle;resizable=0;points=[];labelBackgroundColor=none;" parent="MjW0_bDNU7ffV1WiJ_FF-3" vertex="1" connectable="0">
          <mxGeometry x="0.7587" y="-1" relative="1" as="geometry">
            <mxPoint x="39" as="offset" />
          </mxGeometry>
        </mxCell>
        <mxCell id="MjW0_bDNU7ffV1WiJ_FF-2" value="" style="endArrow=classic;html=1;rounded=0;" parent="1" edge="1">
          <mxGeometry width="50" height="50" relative="1" as="geometry">
            <mxPoint x="440" y="440" as="sourcePoint" />
            <mxPoint x="440" y="200" as="targetPoint" />
          </mxGeometry>
        </mxCell>
        <mxCell id="MjW0_bDNU7ffV1WiJ_FF-5" value="$$\Omega_y$$" style="edgeLabel;html=1;align=center;verticalAlign=middle;resizable=0;points=[];labelBackgroundColor=none;" parent="MjW0_bDNU7ffV1WiJ_FF-2" vertex="1" connectable="0">
          <mxGeometry x="0.8052" y="1" relative="1" as="geometry">
            <mxPoint y="-33" as="offset" />
          </mxGeometry>
        </mxCell>
        <mxCell id="_1cp-EoXjPtlMafOCAFv-151" value="" style="shape=image;verticalLabelPosition=bottom;labelBackgroundColor=default;verticalAlign=top;aspect=fixed;imageAspect=0;image=data:image/jpeg,/9j/4AAQSkZJRgABAQAAAQABAAD/2wBDAAgGBgcGBQgHBwcJCQgKDBQNDAsLDBkSEw8UHRofHh0aHBwgJC4nICIsIxwcKDcpLDAxNDQ0Hyc5PTgyPC4zNDL/wAALCACgAKABAREA/8QAHwAAAQUBAQEBAQEAAAAAAAAAAAECAwQFBgcICQoL/8QAtRAAAgEDAwIEAwUFBAQAAAF9AQIDAAQRBRIhMUEGE1FhByJxFDKBkaEII0KxwRVS0fAkM2JyggkKFhcYGRolJicoKSo0NTY3ODk6Q0RFRkdISUpTVFVWV1hZWmNkZWZnaGlqc3R1dnd4eXqDhIWGh4iJipKTlJWWl5iZmqKjpKWmp6ipqrKztLW2t7i5usLDxMXGx8jJytLT1NXW19jZ2uHi4+Tl5ufo6erx8vP09fb3+Pn6/9oACAEBAAA/APn+iiiiiiiiiiiiiiiiiiiiiiiiiiiiiiiiiiiiiiiiiiiiiiiiiiiiiiiiiiiiiiiiiirVjAJpTuBIAyK1rfR42y7ZYEcjHSpF8LXFxMgiiYRZwW65qS68I3NrdMFjeSEdyMVFNokQjAGV29WI6msq+tViRGUEE8EVRooooooooooop7RuqBipCnoaaoLMAOprsvDWmRL81yoLdQD0NdFJZx2paPaGEvJx29q6TRoLeQxojNDJkbTnOau65bQQSyCSRpWONq56CuOa2imdrZVCK7bsntWX4h0yA2+I1CyjjA7n1rgZYmhkKN1FIkbyEhFJwM8U3pRRRRRRRRSg4INbNohu4ViftyN3Aq/b6BFc4KEq2Mitq0s5ILspI/7lQMsrYxXW2lrFLIJChZUIKqDnPvXU2dhZR7WHlqrENtPqegzU19p1rI7xP5SN911XkA/WuW1C0gWVpYotgGFAzwR9a5PVoGkn/wBHbKF8MS3ArDu/D0aSNLI24scjHTFZ8kAs4iY+N44xyR9aw5CWck9abRRRRRRU8Nq8wOOPrWtFpPyhWUBkPzGr1vZmWTy1DBl/ixxiums9Knt4RLHICcZ29xWhaW0VzaSsTsMnyyEjheetdvoGgImmqnm7cnlx/F7V1dlodk1nNc3MLErkhM46DgikXSbK90j7asbi4PLerkH0rB1LQ0ezn+YneC2zpsNcBNpsNraSxtJvRGLEqP4sdKz3sJ7+EOzhFI+UEYrmbyyNuxLBjn7uB0rPl0tfmfGd3A471l3FhJBu3dQcYFVKKKKs2Vm13MqDOCcZroW8LGO1ZgS2MHI7VpWGmoFTbASFADE8ZrooNBZrQORtIbdyM4FVrjTI4bwpC7EjBJPfNaZw9w8MTfMoG4nj8qtyBILmDy14YjO77rV12nao8dk8Jt4gGcZOcnI5roYTFf2UVqbh5Mt5ileqjuPpUpii08zhJ2jadcBz0UDrgVz93qpS0uIkijlRucscH061x858/UtskeVxkpGe/vVG42QTDe2YmfAI6/lWZc2CSX7CVyUZ8ce9XG0AmOZkYv8AwocYrAvNNUHLW5IHBxzzWND4Z+0Ru4yAWwGx0rF1LTHsJSvLAd6z6K6Xw6IYwWm4Gcn6V1dpcrdTRrEuIhJjyx0P41sQjypkiaINHH0Vecmtw28E9uTCJV6Kx549qzNW0uXiKBfOk9uw9zUmnacyWqo6kXIBIPWtC+klgSGC4iRlAADqvOazZr4QXGyOQKcYO4HmrD+KDbXcIgRf3IChs96fceLp5dTWS5SN2X5WIPAzVR9QVroRmQGPccKOorQsp2W78qCJXY/eZ16D8ahu9POyQTfNMdwQgYArL0zS7iObZcR+XuGFduR+dbiWUUAk84ysiN1GeM1j3jqLjMMO1SCpDDGR61j37fYXbA2oIwCo5D1zevPbXFszQjG7+H0NcceDRW/4YtGvrt4lyXC5AzXUyagNHZ4jEu6MZ+uah07xmvnhPs4AUnLZ5xXeab4qt721+QMHk49MY71Eseox3oaSYKuCTg8MKswanPLdyRwRRsoZRvPUDvW2Em1OFrmOI+SzkA8dQK4LWL+G31CVbhijx8MuMk++a5eTUIjM6ruZid6sT2pp1FG5cHfIRtYHpW9Y6pau8O2QsQwXaV5J+teiwWl1FZtcGJiFQPIcj1rL1LVpxIZhDGYZHBVz1ANVLr7bc3EbW8oMbZwmeAfWrM2vJp1kYrolpUAYkcgkVw2r+Nk8wusG9WBALVDDri6hDHGYh83yAfWsjxTp7WMEbuNpcnbg8YrkqK3NAkltZXkVSAV+8O1dfawWuqEmRiXf5TnqT2qxY+GNNjnUsGV8nIbgV29lpumw2jLD5Q2Y2sDjBI/Ws5LK8S/G65HGd249R7VcTT7Z7ppFndZCQwC9OK0buSGxYqkoVC3yLuxnI61xuopCb11IR933sjO4/WudlsP30gMBDlgAV6AU19N8pmjMJLqRtJ7VuWsUMckUbxovILKF5z9a7S0mSVfs3nAkAAqGJyM1DqOm2rXTMZ3xvGxR90AVQvbS4e4jaK4Cx/wqp5B+laP9n2hsCLso8gwrsTn9K47VfDWlSzHHIwduw5FUJtNs9NgXqrKN+D1B7Vzev3Et5AowXUMcMe1cv0oro/DdyiHa4B+boe9dhFFFCyzoNkIfcynhhV+2uLaVkmeTeG/1i9xXQNc7rbMFsqhV3A54I/xrG1e7luiEZmMqnPy9V9Kl068dLf7K4IuFGGY87a07o2xSCSWcyzMAAu3iozYSXMnmKuzHBO3qetaMfhWPUbqBkSVWdcuQOAfWprvwbHaahGZDLKhBbeBwayZdOkWbzyhKAk7duMDoKfbC2N4RJKYZlGRhetU7y/MUTrI29nyEk6YJ7Vl6bNNZ3BaVnWU8Asc4PpXRQ3UrBpJoFk3MRjI7etYt7NaPOWU+Si5J929Kypdl+TLnMZUBs8kkdhXOeIriFYWjjTZgAAHrXHUVLBO9vKJE6jpWq3iK5eAo5yTgfhWtYavAwQnIOMtg9a34dbaODylkAIbJzzge9NfVXvLslQgYfeI9u9bhzIxljAU4BLDoferCzx3cqTJ8qRkb3U9TXbaXpts+nmQPMXLDap5DeproRHcxaasscKSyK+ML0RB6+9LbvcXsVxceUiKFzDKw+VvUGsW802B7S4eQyLJnOyPgEd+frXC3TRQXbT5MkSfK248g/Wqjt58gnYCSMtlR2NYt5qLW160rbXTflc98U6TX3KS7pEG/GMcDNYt7qkKt8+444IJ6H1rCTxBPCHEfB3ZWs27vZbyTfKearUUUU+OZ487GxmtCLVGRF5O7PzH1rTtrlmYNCFMh5yK6SxvLm5iWJpQqY4zWnBe/ZoJUjADQ/MhxyxzXX6Drtwun/PhZhyd/cV1Vl4iS3tpIGtmkhk9ODyOtPl1tbWybTUtSCh2u3OD9K57UtccWUyrtKgFY1HX8a4eTVJJbd2uFDSs5jKkYOMVnXFxPZR/uJRtI6e1c1dXLMczAYP3Se1Zcuqksyk5GOMdM1nSXEkoIZiQTmoqKKKKKKUdRmtWKZbO1WQONzcDb1xU0WvyRkJCu0nAye1dJp8s8l19oLFyQPlLYrq471badVlQ7HILAnke4rp9P1xZnRUVsZ2quMkj1qxqWsG1cgiTcoyA6/M1cpealFc3LJChCthjzyT6VzOtGZrjcMxbGyPm64rmLvX51neOQbgG4PSqy3a3qOhYDaMqG7VkOAHIByPWm0UUUUUUUUZNAODkV1PhrV1tjsmywPUjriukXU47oPJIclOEHqK6bR9TiRE8oRozEAs7dKuaxq0crSCUwyLwV2N92uPk1CKMNcR/LIrYAPpWN4g1xJbURx9T/ABH1rimYsxLHJpM4ooooooooooooqe1n8iQkjIIwavw6y0ZwygoBhRTG1mcTrLGzKQckZ4p0+u3N1dGaUkA/wqcCnSa27IuxQG755zVK6uvPVVAwBzVWiiiiiiiiiiiiiiiiiiiiiiiiiiiiiiiiiiiiiiiiiiiiiiiiiiiiiiiiiiiiiiiiiiv/2Q==;" vertex="1" parent="1">
          <mxGeometry x="40" y="240" width="160" height="160" as="geometry" />
        </mxCell>
        <mxCell id="_1cp-EoXjPtlMafOCAFv-152" value="" style="shape=flexArrow;endArrow=classic;html=1;rounded=0;fillColor=#50A1F2;strokeColor=#004489;" edge="1" parent="1">
          <mxGeometry width="50" height="50" relative="1" as="geometry">
            <mxPoint x="220" y="320" as="sourcePoint" />
            <mxPoint x="300" y="320" as="targetPoint" />
          </mxGeometry>
        </mxCell>
        <mxCell id="_1cp-EoXjPtlMafOCAFv-153" value="Fourier transform" style="edgeLabel;html=1;align=center;verticalAlign=middle;resizable=0;points=[];" vertex="1" connectable="0" parent="_1cp-EoXjPtlMafOCAFv-152">
          <mxGeometry x="0.6571" y="-3" relative="1" as="geometry">
            <mxPoint x="-26" y="22" as="offset" />
          </mxGeometry>
        </mxCell>
        <mxCell id="_1cp-EoXjPtlMafOCAFv-154" value="" style="shape=table;startSize=0;container=1;collapsible=0;childLayout=tableLayout;fontSize=16;fillColor=#F1B880;strokeColor=#f18e00;" vertex="1" parent="1">
          <mxGeometry x="690" y="310" width="200" height="20" as="geometry" />
        </mxCell>
        <mxCell id="_1cp-EoXjPtlMafOCAFv-163" value="" style="shape=tableRow;horizontal=0;startSize=0;swimlaneHead=0;swimlaneBody=0;strokeColor=inherit;top=0;left=0;bottom=0;right=0;collapsible=0;dropTarget=0;fillColor=none;points=[[0,0.5],[1,0.5]];portConstraint=eastwest;fontSize=16;" vertex="1" parent="_1cp-EoXjPtlMafOCAFv-154">
          <mxGeometry width="200" height="20" as="geometry" />
        </mxCell>
        <mxCell id="_1cp-EoXjPtlMafOCAFv-164" value="" style="shape=partialRectangle;html=1;whiteSpace=wrap;connectable=0;strokeColor=inherit;overflow=hidden;fillColor=none;top=0;left=0;bottom=0;right=0;pointerEvents=1;fontSize=16;" vertex="1" parent="_1cp-EoXjPtlMafOCAFv-163">
          <mxGeometry width="20" height="20" as="geometry">
            <mxRectangle width="20" height="20" as="alternateBounds" />
          </mxGeometry>
        </mxCell>
        <mxCell id="_1cp-EoXjPtlMafOCAFv-165" value="" style="shape=partialRectangle;html=1;whiteSpace=wrap;connectable=0;strokeColor=inherit;overflow=hidden;fillColor=none;top=0;left=0;bottom=0;right=0;pointerEvents=1;fontSize=16;" vertex="1" parent="_1cp-EoXjPtlMafOCAFv-163">
          <mxGeometry x="20" width="20" height="20" as="geometry">
            <mxRectangle width="20" height="20" as="alternateBounds" />
          </mxGeometry>
        </mxCell>
        <mxCell id="_1cp-EoXjPtlMafOCAFv-166" value="" style="shape=partialRectangle;html=1;whiteSpace=wrap;connectable=0;strokeColor=inherit;overflow=hidden;fillColor=none;top=0;left=0;bottom=0;right=0;pointerEvents=1;fontSize=16;" vertex="1" parent="_1cp-EoXjPtlMafOCAFv-163">
          <mxGeometry x="40" width="20" height="20" as="geometry">
            <mxRectangle width="20" height="20" as="alternateBounds" />
          </mxGeometry>
        </mxCell>
        <mxCell id="_1cp-EoXjPtlMafOCAFv-167" style="shape=partialRectangle;html=1;whiteSpace=wrap;connectable=0;strokeColor=inherit;overflow=hidden;fillColor=none;top=0;left=0;bottom=0;right=0;pointerEvents=1;fontSize=16;" vertex="1" parent="_1cp-EoXjPtlMafOCAFv-163">
          <mxGeometry x="60" width="20" height="20" as="geometry">
            <mxRectangle width="20" height="20" as="alternateBounds" />
          </mxGeometry>
        </mxCell>
        <mxCell id="_1cp-EoXjPtlMafOCAFv-168" style="shape=partialRectangle;html=1;whiteSpace=wrap;connectable=0;strokeColor=inherit;overflow=hidden;fillColor=none;top=0;left=0;bottom=0;right=0;pointerEvents=1;fontSize=16;" vertex="1" parent="_1cp-EoXjPtlMafOCAFv-163">
          <mxGeometry x="80" width="20" height="20" as="geometry">
            <mxRectangle width="20" height="20" as="alternateBounds" />
          </mxGeometry>
        </mxCell>
        <mxCell id="_1cp-EoXjPtlMafOCAFv-169" style="shape=partialRectangle;html=1;whiteSpace=wrap;connectable=0;strokeColor=inherit;overflow=hidden;fillColor=none;top=0;left=0;bottom=0;right=0;pointerEvents=1;fontSize=16;" vertex="1" parent="_1cp-EoXjPtlMafOCAFv-163">
          <mxGeometry x="100" width="20" height="20" as="geometry">
            <mxRectangle width="20" height="20" as="alternateBounds" />
          </mxGeometry>
        </mxCell>
        <mxCell id="_1cp-EoXjPtlMafOCAFv-170" style="shape=partialRectangle;html=1;whiteSpace=wrap;connectable=0;strokeColor=inherit;overflow=hidden;fillColor=none;top=0;left=0;bottom=0;right=0;pointerEvents=1;fontSize=16;" vertex="1" parent="_1cp-EoXjPtlMafOCAFv-163">
          <mxGeometry x="120" width="20" height="20" as="geometry">
            <mxRectangle width="20" height="20" as="alternateBounds" />
          </mxGeometry>
        </mxCell>
        <mxCell id="_1cp-EoXjPtlMafOCAFv-171" style="shape=partialRectangle;html=1;whiteSpace=wrap;connectable=0;strokeColor=inherit;overflow=hidden;fillColor=none;top=0;left=0;bottom=0;right=0;pointerEvents=1;fontSize=16;" vertex="1" parent="_1cp-EoXjPtlMafOCAFv-163">
          <mxGeometry x="140" width="20" height="20" as="geometry">
            <mxRectangle width="20" height="20" as="alternateBounds" />
          </mxGeometry>
        </mxCell>
        <mxCell id="_1cp-EoXjPtlMafOCAFv-172" style="shape=partialRectangle;html=1;whiteSpace=wrap;connectable=0;strokeColor=inherit;overflow=hidden;fillColor=none;top=0;left=0;bottom=0;right=0;pointerEvents=1;fontSize=16;" vertex="1" parent="_1cp-EoXjPtlMafOCAFv-163">
          <mxGeometry x="160" width="20" height="20" as="geometry">
            <mxRectangle width="20" height="20" as="alternateBounds" />
          </mxGeometry>
        </mxCell>
        <mxCell id="_1cp-EoXjPtlMafOCAFv-173" style="shape=partialRectangle;html=1;whiteSpace=wrap;connectable=0;strokeColor=inherit;overflow=hidden;fillColor=none;top=0;left=0;bottom=0;right=0;pointerEvents=1;fontSize=16;" vertex="1" parent="_1cp-EoXjPtlMafOCAFv-163">
          <mxGeometry x="180" width="20" height="20" as="geometry">
            <mxRectangle width="20" height="20" as="alternateBounds" />
          </mxGeometry>
        </mxCell>
        <mxCell id="_1cp-EoXjPtlMafOCAFv-176" value="" style="shape=flexArrow;endArrow=classic;html=1;rounded=0;fillColor=#50A1F2;strokeColor=#004489;" edge="1" parent="1">
          <mxGeometry width="50" height="50" relative="1" as="geometry">
            <mxPoint x="590" y="319.66" as="sourcePoint" />
            <mxPoint x="670" y="319.66" as="targetPoint" />
          </mxGeometry>
        </mxCell>
        <mxCell id="_1cp-EoXjPtlMafOCAFv-177" value="Extract" style="edgeLabel;html=1;align=center;verticalAlign=middle;resizable=0;points=[];" vertex="1" connectable="0" parent="_1cp-EoXjPtlMafOCAFv-176">
          <mxGeometry x="0.6571" y="-3" relative="1" as="geometry">
            <mxPoint x="-26" y="22" as="offset" />
          </mxGeometry>
        </mxCell>
      </root>
    </mxGraphModel>
  </diagram>
</mxfile>
